<?xml version="1.0" encoding="UTF-8"?>
<svg id="Layer_1" xmlns="http://www.w3.org/2000/svg" xmlns:xlink="http://www.w3.org/1999/xlink" version="1.1" viewBox="0 0 453.54 283.46">
  <!-- Generator: Adobe Illustrator 29.1.0, SVG Export Plug-In . SVG Version: 2.1.0 Build 142)  -->
  <defs>
    <style>
      .st0, .st1, .st2, .st3, .st4, .st5 {
        fill: none;
      }

      .st6 {
        fill: #231f20;
      }

      .st1 {
        opacity: 0;
      }

      .st1, .st2, .st3, .st4, .st7, .st5, .st8 {
        stroke-miterlimit: 10;
      }

      .st1, .st4 {
        stroke: #000;
      }

      .st9 {
        clip-path: url(#clippath-1);
      }

      .st10 {
        clip-path: url(#clippath-3);
      }

      .st11 {
        clip-path: url(#clippath-4);
      }

      .st12 {
        clip-path: url(#clippath-2);
      }

      .st13 {
        clip-path: url(#clippath-6);
      }

      .st14 {
        clip-path: url(#clippath-5);
      }

      .st2 {
        stroke-width: 1.5px;
      }

      .st2, .st3, .st5, .st8 {
        stroke: #231f20;
      }

      .st3 {
        stroke-width: 2px;
      }

      .st4 {
        stroke-width: 1.96px;
      }

      .st7 {
        fill: #fff;
        stroke: #6d6e71;
      }

      .st5 {
        stroke-width: 3px;
      }

      .st15 {
        clip-path: url(#clippath);
      }

      .st8 {
        fill: #ed2024;
        stroke-width: 1.2px;
      }
    </style>
    <clipPath id="clippath">
      <rect class="st0" x="285.63" y="20.1" width="129.78" height="243.27"/>
    </clipPath>
    <clipPath id="clippath-1">
      <rect class="st0" x="9.77" y="82.93" width="197.78" height="148.12"/>
    </clipPath>
    <clipPath id="clippath-2">
      <rect class="st0" x="229.57" y="247.96" width="14.73" height="18.94"/>
    </clipPath>
    <clipPath id="clippath-3">
      <rect class="st0" x="229.57" y="10.63" width="14.73" height="18.94"/>
    </clipPath>
    <clipPath id="clippath-4">
      <rect class="st0" x="293.09" y="162.11" width="32.27" height="29.46"/>
    </clipPath>
    <clipPath id="clippath-5">
      <rect class="st0" x="341.12" y="92.17" width="11.22" height="11.93"/>
    </clipPath>
    <clipPath id="clippath-6">
      <rect class="st0" x="381.77" y="228.59" width="18.94" height="25.25"/>
    </clipPath>
  </defs>
  <g class="st15">
    <g>
      <g>
        <circle class="st7" cx="290.14" cy="24.61" r="4.01"/>
        <circle class="st7" cx="290.14" cy="24.61" r="1.5"/>
      </g>
      <g>
        <circle class="st7" cx="319.43" cy="24.61" r="4.01"/>
        <circle class="st7" cx="319.43" cy="24.61" r="1.5"/>
      </g>
      <g>
        <circle class="st7" cx="348.72" cy="24.61" r="4.01"/>
        <circle class="st7" cx="348.72" cy="24.61" r="1.5"/>
      </g>
      <g>
        <circle class="st7" cx="378.01" cy="24.61" r="4.01"/>
        <circle class="st7" cx="378.01" cy="24.61" r="1.5"/>
      </g>
      <g>
        <circle class="st7" cx="407.3" cy="24.61" r="4.01"/>
        <circle class="st7" cx="407.3" cy="24.61" r="1.5"/>
      </g>
      <g>
        <circle class="st7" cx="290.14" cy="53.9" r="4.01"/>
        <circle class="st7" cx="290.14" cy="53.9" r="1.5"/>
      </g>
      <g>
        <circle class="st7" cx="319.43" cy="53.9" r="4.01"/>
        <circle class="st7" cx="319.43" cy="53.9" r="1.5"/>
      </g>
      <g>
        <circle class="st7" cx="348.72" cy="53.9" r="4.01"/>
        <circle class="st7" cx="348.72" cy="53.9" r="1.5"/>
      </g>
      <g>
        <circle class="st7" cx="378.01" cy="53.9" r="4.01"/>
        <circle class="st7" cx="378.01" cy="53.9" r="1.5"/>
      </g>
      <g>
        <circle class="st7" cx="407.3" cy="53.9" r="4.01"/>
        <circle class="st7" cx="407.3" cy="53.9" r="1.5"/>
      </g>
      <g>
        <circle class="st7" cx="290.14" cy="83.19" r="4.01"/>
        <circle class="st7" cx="290.14" cy="83.19" r="1.5"/>
      </g>
      <g>
        <circle class="st7" cx="319.43" cy="83.19" r="4.01"/>
        <circle class="st7" cx="319.43" cy="83.19" r="1.5"/>
      </g>
      <g>
        <circle class="st7" cx="348.72" cy="83.19" r="4.01"/>
        <circle class="st7" cx="348.72" cy="83.19" r="1.5"/>
      </g>
      <g>
        <circle class="st7" cx="378.01" cy="83.19" r="4.01"/>
        <circle class="st7" cx="378.01" cy="83.19" r="1.5"/>
      </g>
      <g>
        <circle class="st7" cx="407.3" cy="83.19" r="4.01"/>
        <circle class="st7" cx="407.3" cy="83.19" r="1.5"/>
      </g>
      <g>
        <circle class="st7" cx="290.14" cy="112.48" r="4.01"/>
        <circle class="st7" cx="290.14" cy="112.48" r="1.5"/>
      </g>
      <g>
        <circle class="st7" cx="319.43" cy="112.48" r="4.01"/>
        <circle class="st7" cx="319.43" cy="112.48" r="1.5"/>
      </g>
      <g>
        <circle class="st7" cx="348.72" cy="112.48" r="4.01"/>
        <circle class="st7" cx="348.72" cy="112.48" r="1.5"/>
      </g>
      <g>
        <circle class="st7" cx="378.01" cy="112.48" r="4.01"/>
        <circle class="st7" cx="378.01" cy="112.48" r="1.5"/>
      </g>
      <g>
        <circle class="st7" cx="407.3" cy="112.48" r="4.01"/>
        <circle class="st7" cx="407.3" cy="112.48" r="1.5"/>
      </g>
      <g>
        <circle class="st7" cx="290.14" cy="141.77" r="4.01"/>
        <circle class="st7" cx="290.14" cy="141.77" r="1.5"/>
      </g>
      <g>
        <circle class="st7" cx="319.43" cy="141.77" r="4.01"/>
        <circle class="st7" cx="319.43" cy="141.77" r="1.5"/>
      </g>
      <g>
        <circle class="st7" cx="348.72" cy="141.77" r="4.01"/>
        <circle class="st7" cx="348.72" cy="141.77" r="1.5"/>
      </g>
      <g>
        <circle class="st7" cx="378.01" cy="141.77" r="4.01"/>
        <circle class="st7" cx="378.01" cy="141.77" r="1.5"/>
      </g>
      <g>
        <circle class="st7" cx="407.3" cy="141.77" r="4.01"/>
        <circle class="st7" cx="407.3" cy="141.77" r="1.5"/>
      </g>
      <g>
        <circle class="st7" cx="290.14" cy="171.06" r="4.01"/>
        <circle class="st7" cx="290.14" cy="171.06" r="1.5"/>
      </g>
      <g>
        <circle class="st7" cx="319.43" cy="171.06" r="4.01"/>
        <circle class="st7" cx="319.43" cy="171.06" r="1.5"/>
      </g>
      <g>
        <circle class="st7" cx="348.72" cy="171.06" r="4.01"/>
        <circle class="st7" cx="348.72" cy="171.06" r="1.5"/>
      </g>
      <g>
        <circle class="st7" cx="378.01" cy="171.06" r="4.01"/>
        <circle class="st7" cx="378.01" cy="171.06" r="1.5"/>
      </g>
      <g>
        <circle class="st7" cx="407.3" cy="171.06" r="4.01"/>
        <circle class="st7" cx="407.3" cy="171.06" r="1.5"/>
      </g>
      <g>
        <circle class="st7" cx="290.14" cy="200.35" r="4.01"/>
        <circle class="st7" cx="290.14" cy="200.35" r="1.5"/>
      </g>
      <g>
        <circle class="st7" cx="319.43" cy="200.35" r="4.01"/>
        <circle class="st7" cx="319.43" cy="200.35" r="1.5"/>
      </g>
      <g>
        <circle class="st7" cx="348.72" cy="200.35" r="4.01"/>
        <circle class="st7" cx="348.72" cy="200.35" r="1.5"/>
      </g>
      <g>
        <circle class="st7" cx="378.01" cy="200.35" r="4.01"/>
        <circle class="st7" cx="378.01" cy="200.35" r="1.5"/>
      </g>
      <g>
        <circle class="st7" cx="407.3" cy="200.35" r="4.01"/>
        <circle class="st7" cx="407.3" cy="200.35" r="1.5"/>
      </g>
      <g>
        <circle class="st7" cx="290.14" cy="229.64" r="4.01"/>
        <circle class="st7" cx="290.14" cy="229.64" r="1.5"/>
      </g>
      <g>
        <circle class="st7" cx="319.43" cy="229.64" r="4.01"/>
        <circle class="st7" cx="319.43" cy="229.64" r="1.5"/>
      </g>
      <g>
        <circle class="st7" cx="348.72" cy="229.64" r="4.01"/>
        <circle class="st7" cx="348.72" cy="229.64" r="1.5"/>
      </g>
      <g>
        <circle class="st7" cx="378.01" cy="229.64" r="4.01"/>
        <circle class="st7" cx="378.01" cy="229.64" r="1.5"/>
      </g>
      <g>
        <circle class="st7" cx="407.3" cy="229.64" r="4.01"/>
        <circle class="st7" cx="407.3" cy="229.64" r="1.5"/>
      </g>
      <g>
        <circle class="st7" cx="290.14" cy="258.92" r="4.01"/>
        <circle class="st7" cx="290.14" cy="258.92" r="1.5"/>
      </g>
      <g>
        <circle class="st7" cx="319.43" cy="258.92" r="4.01"/>
        <circle class="st7" cx="319.43" cy="258.92" r="1.5"/>
      </g>
      <g>
        <circle class="st7" cx="348.72" cy="258.92" r="4.01"/>
        <circle class="st7" cx="348.72" cy="258.92" r="1.5"/>
      </g>
      <g>
        <circle class="st7" cx="378.01" cy="258.92" r="4.01"/>
        <circle class="st7" cx="378.01" cy="258.92" r="1.5"/>
      </g>
      <g>
        <circle class="st7" cx="407.3" cy="258.92" r="4.01"/>
        <circle class="st7" cx="407.3" cy="258.92" r="1.5"/>
      </g>
    </g>
  </g>
  <path class="st5" d="M198.23,48.65h87.4c51.24,0,92.78,41.54,92.78,92.78s-41.54,92.78-92.78,92.78h-43.2"/>
  <g>
    <line class="st3" x1="285.63" y1="141.77" x2="359.86" y2="102.45"/>
    <polygon class="st6" points="358.74 109.33 358.23 103.32 353.54 99.52 367.78 98.26 358.74 109.33"/>
  </g>
  <g>
    <line class="st3" x1="292.79" y1="147.15" x2="359.6" y2="197.45"/>
    <polygon class="st6" points="292.81 154.12 294.27 148.27 299.49 145.25 285.63 141.77 292.81 154.12"/>
  </g>
  <g>
    <circle class="st8" cx="183.71" cy="48.65" r="5.49"/>
    <line class="st8" x1="183.71" y1="45.3" x2="183.71" y2="52.01"/>
    <line class="st8" x1="180.35" y1="48.65" x2="187.07" y2="48.65"/>
  </g>
  <g>
    <circle class="st8" cx="359.6" cy="197.45" r="5.49"/>
    <line class="st8" x1="359.6" y1="194.1" x2="359.6" y2="200.81"/>
    <line class="st8" x1="356.24" y1="197.45" x2="362.95" y2="197.45"/>
  </g>
  <polygon class="st1" points="258.93 104.49 258.93 104.49 258.93 104.49 258.93 104.49 258.93 104.49 258.93 104.49 258.93 104.49 258.93 104.49 258.93 104.49 258.93 104.49 258.93 104.49 258.93 104.49 258.93 104.49 258.93 104.49 258.93 104.49 258.93 104.49 258.93 104.49 258.93 104.49 258.93 104.49 258.93 104.49 258.93 104.49 258.93 104.49 258.93 104.49 258.93 104.49 258.93 104.49 258.93 104.49 258.93 104.49 258.93 104.49 258.93 104.49 258.93 104.49 258.93 104.49 258.93 104.49 258.93 104.49 258.93 104.49 258.93 104.49 258.93 104.49 258.93 104.49 258.93 104.49 258.93 104.49 258.93 104.49 258.93 104.49 258.93 104.49 258.93 104.49 258.93 104.49 258.93 104.49 258.93 104.49 258.93 104.49 258.93 104.49 258.93 104.49 258.93 104.49 258.93 104.49 258.93 104.49 258.93 104.49 258.93 104.49 258.93 104.49 258.93 104.49 258.93 104.49 258.93 104.49 258.93 104.49 258.93 104.49 258.93 104.49 258.93 104.49 258.93 104.49 258.93 104.49 258.93 104.49 258.93 104.49 258.93 104.49 258.93 104.49 258.93 104.49 258.93 104.49 258.93 104.49 258.93 104.49 258.93 104.49 258.93 104.49 258.93 104.49 258.93 104.49 258.93 104.49 258.93 104.49 258.93 104.49 258.93 104.49 258.93 104.49 258.93 104.49 258.93 104.49 258.93 104.49 258.93 104.49 258.93 104.49"/>
  <polygon class="st1" points="228.7 162.5 228.7 162.5 228.7 162.5 228.7 162.5 228.7 162.5 228.7 162.5 228.7 162.5 228.7 162.5 228.7 162.5 228.7 162.5 228.7 162.5 228.7 162.5 228.7 162.5 228.7 162.5 228.7 162.5 228.7 162.5 228.7 162.5 228.7 162.5 228.7 162.5 228.7 162.5 228.7 162.5 228.7 162.5 228.7 162.5 228.7 162.5 228.7 162.5 228.7 162.5 228.7 162.5 228.7 162.5 228.7 162.5 228.7 162.5 228.7 162.5 228.7 162.5 228.7 162.5 228.7 162.5 228.7 162.5 228.7 162.5 228.7 162.5 228.7 162.5 228.7 162.5 228.7 162.5 228.7 162.5 228.7 162.5 228.7 162.5 228.7 162.5 228.7 162.5 228.7 162.5 228.7 162.5 228.7 162.5 228.7 162.5 228.7 162.5 228.7 162.5 228.7 162.5 228.7 162.5 228.7 162.5 228.7 162.5 228.7 162.5 228.7 162.5 228.7 162.5 228.7 162.5 228.7 162.5 228.7 162.5 228.7 162.5 228.7 162.5 228.7 162.5 228.7 162.5 228.7 162.5 228.7 162.5 228.7 162.5 228.7 162.5 228.7 162.5 228.7 162.5 228.7 162.5 228.7 162.5 228.7 162.5 228.7 162.5 228.7 162.5 228.7 162.5 228.7 162.5 228.7 162.5 228.7 162.5 228.7 162.5 228.7 162.5 228.7 162.5 228.7 162.5 228.7 162.5 228.7 162.5"/>
  <g>
    <line class="st2" x1="216.73" y1="36.06" x2="250.42" y2="36.06"/>
    <polygon class="st6" points="247.26 40.22 249.03 36.06 247.26 31.89 257.14 36.06 247.26 40.22"/>
  </g>
  <polygon class="st1" points="320.91 83.51 320.91 83.51 320.91 83.51 320.91 83.51 320.91 83.51 320.91 83.51 320.91 83.51 320.91 83.51 320.91 83.51 320.91 83.51 320.91 83.51 320.91 83.51 320.91 83.51 320.91 83.51 320.91 83.51 320.91 83.51 320.91 83.51 320.91 83.51 320.91 83.51 320.91 83.51 320.91 83.51 320.91 83.51 320.91 83.51 320.91 83.51 320.91 83.51 320.91 83.51 320.91 83.51 320.91 83.51 320.91 83.51 320.91 83.51 320.91 83.51 320.91 83.51 320.91 83.51 320.91 83.51 320.91 83.51 320.91 83.51 320.91 83.51 320.91 83.51 320.91 83.51 320.91 83.51 320.91 83.51 320.91 83.51 320.91 83.51 320.91 83.51 320.91 83.51 320.91 83.51 320.91 83.51 320.91 83.51 320.91 83.51 320.91 83.51 320.91 83.51 320.91 83.51 320.91 83.51 320.91 83.51 320.91 83.51 320.91 83.51 320.91 83.51 320.91 83.51 320.91 83.51 320.91 83.51 320.91 83.51 320.91 83.51 320.91 83.51 320.91 83.51 320.91 83.51 320.91 83.51 320.91 83.51 320.91 83.51 320.91 83.51 320.91 83.51 320.91 83.51 320.91 83.51 320.91 83.51 320.91 83.51 320.91 83.51 320.91 83.51 320.91 83.51 320.91 83.51 320.91 83.51 320.91 83.51 320.91 83.51 320.91 83.51 320.91 83.51 320.91 83.51 320.91 83.51 320.91 83.51"/>
  <g>
    <line class="st2" x1="223.45" y1="244.23" x2="257.14" y2="244.23"/>
    <polygon class="st6" points="226.6 248.4 224.83 244.23 226.6 240.07 216.73 244.23 226.6 248.4"/>
  </g>
  <g>
    <path class="st2" d="M356.19,67.77c9.01,8.96,16.19,19.75,20.94,31.78"/>
    <polygon class="st6" points="372.06 98.03 376.58 98.26 379.89 95.17 379.36 105.88 372.06 98.03"/>
  </g>
  <polygon class="st1" points="101.26 147.83 101.26 147.83 101.26 147.83 101.26 147.83 101.26 147.83 101.26 147.83 101.26 147.83 101.26 147.83 101.26 147.83 101.26 147.83 101.26 147.83 101.26 147.83 101.26 147.83 101.26 147.83 101.26 147.83 101.26 147.83 101.26 147.83 101.26 147.83 101.26 147.83 101.26 147.83 101.26 147.83 101.26 147.83 101.26 147.83 101.26 147.83 101.26 147.83 101.26 147.83 101.26 147.83 101.26 147.83 101.26 147.83 101.26 147.83 101.26 147.83 101.26 147.83 101.26 147.83 101.26 147.83 101.26 147.83 101.26 147.83 101.26 147.83 101.26 147.83 101.26 147.83 101.26 147.83 101.26 147.83 101.26 147.83 101.26 147.83 101.26 147.83 101.26 147.83 101.26 147.83 101.26 147.83 101.26 147.83 101.26 147.83 101.26 147.83 101.26 147.83 101.26 147.83 101.26 147.83 101.26 147.83 101.26 147.83 101.26 147.83 101.26 147.83 101.26 147.83 101.26 147.83 101.26 147.83 101.26 147.83 101.26 147.83 101.26 147.83 101.26 147.83 101.26 147.83 101.26 147.83 101.26 147.83 101.26 147.83 101.26 147.83 101.26 147.83 101.26 147.83 101.26 147.83 101.26 147.83 101.26 147.83 101.26 147.83 101.26 147.83 101.26 147.83 101.26 147.83 101.26 147.83 101.26 147.83 101.26 147.83 101.26 147.83 101.26 147.83 101.26 147.83 101.26 147.83 101.26 147.83 101.26 147.83 101.26 147.83 101.26 147.83 101.26 147.83 101.26 147.83 101.26 147.83 101.26 147.83 101.26 147.83 101.26 147.83 101.26 147.83 101.26 147.83 101.26 147.83 101.26 147.83 101.26 147.83 101.26 147.83 101.26 147.83 101.26 147.83 101.26 147.83 101.26 147.83 101.26 147.83 101.26 147.83 101.26 147.83 101.26 147.83"/>
  <g class="st9">
    <path class="st1" d="M108.66,156.99h0Z"/>
    <path d="M29.93,87.27c-.43.4-1.44,1.26-1.44,1.81,0,.31.31.61.61.61.28,0,.43-.22.58-.4.37-.46,1.07-1.32,2.42-1.99.22-.12.52-.28.52-.64,0-.31-.22-.46-.43-.61-.68-.46-1.01-1.01-1.26-1.75-.06-.28-.18-.68-.61-.68s-.61.4-.61.64c0,.15.24,1.14.74,1.78h-10.34c-.52,0-1.07,0-1.07.61s.55.61,1.07.61h9.82"/>
    <path d="M18.21,103.35h2.98c2.3,0,2.55.49,2.55,1.38,0,.21,0,.58-.21,1.5-.06.15-.09.28-.09.34,0,.25.18.37.37.37.31,0,.31-.09.46-.64l1.69-6.66c.09-.34.09-.4.09-.49,0-.06-.06-.34-.37-.34s-.34.15-.46.64c-.64,2.39-1.35,2.95-3.96,2.95h-2.79l1.96-7.8c.28-1.07.31-1.2,1.66-1.2h4.05c3.78,0,4.48,1.01,4.48,3.38,0,.71,0,.83-.09,1.66-.06.4-.06.46-.06.55,0,.15.09.37.37.37.34,0,.37-.18.43-.77l.61-5.31c.09-.83-.06-.83-.83-.83h-15.04c-.61,0-.92,0-.92.61,0,.34.28.34.86.34,1.14,0,2,0,2,.55,0,.12,0,.18-.15.74l-4.05,16.24c-.31,1.2-.37,1.44-2.79,1.44-.52,0-.86,0-.86.58,0,.37.37.37.46.37.89,0,3.16-.09,4.05-.09,1.01,0,3.56.09,4.57.09.28,0,.64,0,.64-.58,0-.24-.18-.31-.18-.34-.09-.03-.15-.03-.86-.03s-.83,0-1.6-.06c-.89-.09-.98-.21-.98-.61,0-.06,0-.24.12-.71l1.9-7.64"/>
    <path d="M37.93,116.12c-.11.43-.3,1.16-.3,1.27,0,.47.39.69.73.69.39,0,.73-.28.84-.47.11-.19.28-.88.39-1.33.11-.41.34-1.4.47-1.93.13-.47.26-.95.37-1.44.24-.92.24-.97.66-1.63.69-1.05,1.76-2.28,3.44-2.28,1.2,0,1.27.99,1.27,1.5,0,1.29-.92,3.67-1.27,4.58-.24.6-.32.79-.32,1.16,0,1.14.94,1.85,2.04,1.85,2.15,0,3.09-2.96,3.09-3.29,0-.28-.28-.28-.34-.28-.3,0-.32.13-.41.36-.49,1.72-1.42,2.6-2.28,2.6-.45,0-.54-.3-.54-.75,0-.49.11-.77.49-1.74.26-.67,1.14-2.94,1.14-4.15,0-.34,0-1.24-.79-1.87-.37-.28-.99-.58-2-.58-1.93,0-3.11,1.27-3.8,2.17-.17-1.83-1.7-2.17-2.79-2.17-1.78,0-2.99,1.1-3.63,1.95-.15-1.48-1.42-1.95-2.3-1.95s-1.42.66-1.7,1.16c-.47.79-.77,2.02-.77,2.13,0,.28.3.28.37.28.3,0,.32-.06.47-.64.32-1.27.73-2.32,1.57-2.32.56,0,.71.47.71,1.05,0,.41-.19,1.2-.34,1.78-.15.58-.37,1.46-.47,1.93l-.69,2.75c-.09.28-.22.82-.22.88,0,.47.39.69.73.69.39,0,.73-.28.84-.47.11-.19.28-.88.39-1.33.11-.41.34-1.4.47-1.93.13-.47.26-.95.37-1.44.24-.88.28-1.05.9-1.93.6-.86,1.61-1.98,3.22-1.98,1.25,0,1.27,1.1,1.27,1.5,0,.54-.06.82-.37,2.02l-.9,3.61"/>
    <path d="M81.57,109.24c.43,0,1.01,0,1.01-.61s-.58-.61-1.04-.61h-18.32c-.46,0-1.04,0-1.04.61s.58.61,1.01.61h18.38M81.54,103.29c.46,0,1.04,0,1.04-.61s-.58-.61-1.01-.61h-18.38c-.43,0-1.01,0-1.01.61s.58.61,1.04.61h18.32Z"/>
    <path d="M98.27,112.99c-1.84,0-1.96-2.36-1.96-2.89,0-1.47.89-4.82,1.41-6.11.95-2.27,2.55-3.56,3.8-3.56,2,0,2.43,2.49,2.43,2.7,0,.18-1.69,6.9-1.78,7.03-.46.86-2.18,2.82-3.9,2.82M106.77,100.1c0-.12-.09-.31-.31-.31-.34,0-1.57,1.23-2.09,2.12-.68-1.66-1.87-2.15-2.85-2.15-3.62,0-7.4,4.54-7.4,8.99,0,3.01,1.81,4.91,4.05,4.91,1.32,0,2.52-.74,3.62-1.84-.28,1.07-1.29,5.22-1.38,5.49-.25.86-.49.98-2.21,1.01-.4,0-.71,0-.71.61,0,.03,0,.34.4.34.98,0,2.06-.09,3.07-.09s2.15.09,3.16.09c.15,0,.55,0,.55-.61,0-.34-.31-.34-.8-.34-1.47,0-1.47-.21-1.47-.49,0-.21.06-.4.12-.67l4.24-17.06Z"/>
    <path d="M117.87,120.69c0-.09,0-.15-.52-.68-3.84-3.87-4.82-9.67-4.82-14.36,0-5.34,1.17-10.68,4.94-14.52.4-.37.4-.43.4-.52,0-.22-.12-.31-.31-.31-.31,0-3.07,2.09-4.88,5.98-1.57,3.38-1.93,6.78-1.93,9.36,0,2.39.34,6.11,2.03,9.57,1.84,3.77,4.48,5.77,4.79,5.77.18,0,.31-.09.31-.31"/>
    <path d="M134.98,95.06c-.43.4-1.44,1.26-1.44,1.81,0,.31.31.61.61.61.28,0,.43-.22.58-.4.37-.46,1.07-1.32,2.42-1.99.21-.12.52-.28.52-.64,0-.31-.21-.46-.43-.61-.68-.46-1.01-1.01-1.26-1.75-.06-.28-.18-.68-.61-.68s-.61.4-.61.64c0,.15.24,1.14.74,1.78h-10.34c-.52,0-1.07,0-1.07.61s.55.61,1.07.61h9.82"/>
    <path d="M134.06,101.91c0-1.66-.8-2.15-1.35-2.15-.77,0-1.5.8-1.5,1.47,0,.4.15.58.49.92.64.61,1.04,1.41,1.04,2.52,0,1.29-1.87,8.32-5.46,8.32-1.57,0-2.27-1.07-2.27-2.67,0-1.72.83-3.96,1.78-6.51.21-.52.37-.95.37-1.53,0-1.38-.98-2.52-2.52-2.52-2.88,0-4.05,4.45-4.05,4.73,0,.31.31.31.37.31.31,0,.34-.06.49-.55.89-3.1,2.21-3.81,3.1-3.81.24,0,.77,0,.77.98,0,.77-.31,1.6-.52,2.15-1.35,3.56-1.75,4.97-1.75,6.29,0,3.31,2.7,3.8,4.11,3.8,5.16,0,6.9-10.16,6.9-11.75"/>
    <path d="M154.41,104.79l-6.14-6.11c-.37-.37-.43-.43-.68-.43-.31,0-.61.28-.61.61,0,.21.06.28.4.61l6.14,6.17-6.14,6.17c-.34.34-.4.4-.4.61,0,.34.31.61.61.61.25,0,.31-.06.68-.43l6.11-6.11,6.35,6.35c.06.03.28.18.46.18.37,0,.61-.28.61-.61,0-.06,0-.18-.09-.34-.03-.06-4.91-4.88-6.45-6.44l5.62-5.62c.15-.18.61-.58.77-.77.03-.06.15-.18.15-.4,0-.34-.25-.61-.61-.61-.25,0-.37.12-.71.46l-6.08,6.08"/>
    <path d="M194.57,87.27c-.43.4-1.44,1.26-1.44,1.81,0,.31.31.61.61.61.28,0,.43-.22.58-.4.37-.46,1.07-1.32,2.42-1.99.21-.12.52-.28.52-.64,0-.31-.21-.46-.43-.61-.68-.46-1.01-1.01-1.26-1.75-.06-.28-.18-.68-.61-.68s-.61.4-.61.64c0,.15.24,1.14.74,1.78h-10.34c-.52,0-1.07,0-1.07.61s.55.61,1.07.61h9.82"/>
    <path d="M181.37,112.37c-.43,0-.49,0-.67-.03-.31-.03-.4-.06-.4-.31,0-.09,0-.15.15-.71l2.12-8.56h5.8c2.95,0,3.53,2.27,3.53,3.59,0,3.04-2.73,6.02-6.35,6.02h-4.17M182.76,102.09l1.9-7.61c.28-1.07.34-1.17,1.66-1.17h3.96c2.7,0,3.35,1.81,3.35,3.16,0,2.7-2.64,5.62-6.38,5.62h-4.48ZM178.12,110.93c-.31,1.2-.37,1.44-2.79,1.44-.52,0-.83,0-.83.61,0,.34.28.34.83.34h10.96c4.85,0,8.47-3.62,8.47-6.63,0-2.21-1.78-3.99-4.76-4.33,3.19-.58,6.41-2.85,6.41-5.77,0-2.27-2.02-4.24-5.71-4.24h-10.31c-.58,0-.89,0-.89.61,0,.34.28.34.86.34.06,0,.64,0,1.17.06.55.06.83.09.83.49,0,.12-.03.21-.12.58l-4.11,16.48Z"/>
    <path d="M206.91,105.65c0-2.39-.34-6.11-2.02-9.58-1.84-3.77-4.48-5.77-4.79-5.77-.18,0-.31.12-.31.31,0,.09,0,.15.58.7,3.01,3.04,4.76,7.92,4.76,14.33,0,5.25-1.13,10.65-4.94,14.52-.4.37-.4.43-.4.52,0,.18.12.31.31.31.31,0,3.07-2.09,4.88-5.98,1.57-3.38,1.93-6.78,1.93-9.36"/>
    <path d="M24.03,181.03c-.09.46-.28,1.17-.28,1.32,0,.55.43.83.89.83.37,0,.92-.24,1.13-.86.03-.06.4-1.5.58-2.27l.68-2.76c.18-.68.37-1.35.52-2.06.12-.52.37-1.41.4-1.53.46-.95,2.09-3.74,5-3.74,1.38,0,1.66,1.14,1.66,2.15,0,.77-.21,1.63-.46,2.55l-.86,3.56-.61,2.33c-.12.61-.4,1.66-.4,1.81,0,.55.43.83.89.83.95,0,1.14-.77,1.38-1.75.43-1.72,1.57-6.2,1.84-7.4.09-.4,1.72-4.08,5.06-4.08,1.32,0,1.66,1.04,1.66,2.15,0,1.75-1.29,5.25-1.9,6.87-.28.74-.4,1.07-.4,1.69,0,1.44,1.07,2.52,2.52,2.52,2.88,0,4.02-4.48,4.02-4.73,0-.31-.28-.31-.37-.31-.31,0-.31.09-.46.55-.46,1.63-1.44,3.81-3.13,3.81-.52,0-.74-.31-.74-1.01,0-.77.28-1.5.55-2.18.58-1.6,1.87-5,1.87-6.75,0-1.99-1.23-3.28-3.53-3.28s-3.87,1.35-5,2.98c-.03-.4-.12-1.44-.98-2.18-.77-.64-1.75-.8-2.52-.8-2.76,0-4.26,1.96-4.79,2.67-.15-1.75-1.44-2.67-2.82-2.67s-1.99,1.2-2.27,1.75c-.55,1.07-.95,2.88-.95,2.98,0,.31.31.31.37.31.31,0,.34-.03.52-.71.52-2.18,1.13-3.65,2.24-3.65.49,0,.95.24.95,1.41,0,.64-.09.98-.49,2.58l-1.78,7.09"/>
    <line class="st4" x1="21.32" y1="195.9" x2="48.28" y2="195.9"/>
    <path d="M32.78,224.29c-1.84,0-1.97-2.36-1.97-2.89,0-1.47.89-4.82,1.41-6.11.95-2.27,2.55-3.56,3.8-3.56,2,0,2.43,2.49,2.43,2.7,0,.18-1.69,6.9-1.78,7.03-.46.86-2.18,2.82-3.9,2.82M41.28,211.4c0-.12-.09-.31-.31-.31-.34,0-1.57,1.23-2.09,2.12-.68-1.66-1.87-2.15-2.85-2.15-3.62,0-7.4,4.54-7.4,8.99,0,3.01,1.81,4.91,4.05,4.91,1.32,0,2.52-.74,3.62-1.84-.28,1.07-1.29,5.22-1.38,5.49-.25.86-.49.98-2.21,1.01-.4,0-.71,0-.71.61,0,.03,0,.34.4.34.98,0,2.06-.09,3.07-.09s2.15.09,3.16.09c.15,0,.55,0,.55-.61,0-.34-.31-.34-.8-.34-1.47,0-1.47-.21-1.47-.49,0-.21.06-.4.12-.67l4.24-17.06Z"/>
    <path d="M81.57,199.48c.43,0,1.01,0,1.01-.61s-.58-.61-1.04-.61h-18.32c-.46,0-1.04,0-1.04.61s.58.61,1.01.61h18.38M81.54,193.53c.46,0,1.04,0,1.04-.61s-.58-.61-1.01-.61h-18.38c-.43,0-1.01,0-1.01.61s.58.61,1.04.61h18.32Z"/>
    <path d="M104.75,181.89c-.43,0-.49,0-.67-.03-.31-.03-.4-.06-.4-.31,0-.09,0-.15.15-.7l2.12-8.56h5.8c2.95,0,3.53,2.27,3.53,3.59,0,3.04-2.73,6.02-6.35,6.02h-4.17M106.13,171.61l1.9-7.61c.28-1.07.34-1.17,1.66-1.17h3.96c2.7,0,3.35,1.81,3.35,3.16,0,2.7-2.64,5.62-6.38,5.62h-4.48ZM101.49,180.45c-.31,1.2-.37,1.44-2.79,1.44-.52,0-.83,0-.83.61,0,.34.28.34.83.34h10.96c4.85,0,8.47-3.62,8.47-6.63,0-2.21-1.78-3.99-4.76-4.33,3.19-.58,6.41-2.85,6.41-5.77,0-2.27-2.02-4.24-5.71-4.24h-10.31c-.58,0-.89,0-.89.61,0,.34.28.34.86.34.06,0,.64,0,1.17.06.55.06.83.09.83.49,0,.12-.03.21-.12.58l-4.11,16.48Z"/>
    <path d="M132.26,167.72h-.73c-.06.47-.28,1.74-.56,1.95-.17.13-1.83.13-2.13.13h-3.95c2.26-2,3.01-2.6,4.3-3.61,1.59-1.27,3.07-2.6,3.07-4.64,0-2.6-2.28-4.19-5.03-4.19s-4.47,1.87-4.47,3.84c0,1.1.92,1.2,1.14,1.2.52,0,1.14-.37,1.14-1.14,0-.39-.15-1.14-1.27-1.14.67-1.53,2.13-2,3.14-2,2.15,0,3.26,1.67,3.26,3.42,0,1.87-1.33,3.35-2.02,4.12l-5.18,5.11c-.21.19-.21.24-.21.84h8.85l.64-3.91"/>
    <path d="M137.9,181.03c-.09.46-.28,1.17-.28,1.32,0,.55.43.83.89.83.37,0,.92-.24,1.13-.86.06-.12,1.11-4.3,1.23-4.85.25-1.01.8-3.16.98-3.99.12-.4.98-1.84,1.72-2.52.24-.22,1.14-1.01,2.45-1.01.8,0,1.26.37,1.29.37-.92.15-1.6.89-1.6,1.69,0,.49.34,1.07,1.17,1.07s1.69-.71,1.69-1.81-.98-1.99-2.55-1.99c-1.99,0-3.34,1.5-3.93,2.36-.25-1.38-1.35-2.36-2.79-2.36s-1.99,1.2-2.27,1.75c-.55,1.04-.95,2.88-.95,2.98,0,.31.31.31.37.31.31,0,.34-.03.52-.71.52-2.18,1.13-3.65,2.24-3.65.52,0,.95.24.95,1.41,0,.64-.09.98-.49,2.58l-1.78,7.09"/>
    <path d="M160.77,167.72h-.73c-.06.47-.28,1.74-.56,1.95-.17.13-1.83.13-2.13.13h-3.95c2.26-2,3.01-2.6,4.3-3.61,1.59-1.27,3.07-2.6,3.07-4.64,0-2.6-2.28-4.19-5.03-4.19s-4.47,1.87-4.47,3.84c0,1.1.92,1.2,1.14,1.2.52,0,1.14-.37,1.14-1.14,0-.39-.15-1.14-1.27-1.14.67-1.53,2.13-2,3.14-2,2.15,0,3.26,1.67,3.26,3.42,0,1.87-1.33,3.35-2.02,4.12l-5.18,5.11c-.21.19-.21.24-.21.84h8.85l.64-3.91"/>
    <line class="st4" x1="96.59" y1="195.9" x2="163.68" y2="195.9"/>
    <path d="M109.98,222.26l3.25-3.16c4.79-4.24,6.63-5.89,6.63-8.96,0-3.5-2.76-5.95-6.51-5.95-3.47,0-5.74,2.82-5.74,5.56,0,1.72,1.53,1.72,1.63,1.72.52,0,1.6-.37,1.6-1.63,0-.8-.55-1.6-1.63-1.6-.25,0-.31,0-.4.03.7-2,2.36-3.13,4.14-3.13,2.79,0,4.11,2.49,4.11,5s-1.53,4.88-3.22,6.78l-5.89,6.57c-.34.34-.34.4-.34,1.14h11.39l.86-5.34h-.77c-.15.92-.37,2.27-.68,2.73-.21.25-2.24.25-2.91.25h-5.52"/>
    <path d="M140.69,207.16c1.5-2.39,2.79-2.49,3.93-2.55.37-.03.4-.55.4-.58,0-.25-.15-.37-.4-.37-.8,0-1.69.09-2.52.09-1.01,0-2.06-.09-3.04-.09-.18,0-.58,0-.58.58,0,.34.28.37.49.37.83.06,1.41.37,1.41,1.01,0,.46-.46,1.13-.46,1.17l-9.42,14.98-2.09-16.24c0-.52.71-.92,2.12-.92.43,0,.77,0,.77-.61,0-.28-.25-.34-.43-.34-1.23,0-2.55.09-3.81.09-.55,0-1.14-.03-1.69-.03s-1.13-.06-1.66-.06c-.21,0-.58,0-.58.58,0,.37.28.37.77.37,1.72,0,1.75.28,1.84,1.04l2.42,18.93c.09.61.22.71.61.71.49,0,.61-.15.86-.55l11.05-17.59"/>
    <path d="M147,226.56c-.15.6-.62,1.03-1.1,1.44-.19.17-1.05.86-1.98.86-.79,0-1.57-.56-1.57-2.08,0-1.14.62-3.5,1.12-4.36.99-1.72,2.08-2.04,2.68-2.04,1.5,0,1.91,1.63,1.91,1.87,0,.09-.04.24-.06.3l-1.01,4.02M148.37,221.04c-.45-.71-1.18-1.27-2.21-1.27-2.75,0-5.54,3.03-5.54,6.12,0,2.08,1.4,3.57,3.24,3.57,1.16,0,2.19-.67,3.05-1.5.41,1.29,1.65,1.5,2.21,1.5.77,0,1.31-.47,1.7-1.14.47-.84.75-2.06.75-2.15,0-.28-.28-.28-.34-.28-.3,0-.32.09-.47.67-.26,1.03-.67,2.3-1.57,2.3-.56,0-.71-.47-.71-1.05,0-.37.17-1.14.32-1.7.15-.58.37-1.46.47-1.93l.43-1.63c.13-.56.39-1.57.39-1.67,0-.47-.39-.69-.73-.69-.36,0-.86.26-.99.86Z"/>
  </g>
  <polygon class="st1" points="394.46 37.32 394.46 37.32 394.46 37.32 394.46 37.32 394.46 37.32 394.46 37.32 394.46 37.32 394.46 37.32 394.46 37.32 394.46 37.32 394.46 37.32 394.46 37.32 394.46 37.32 394.46 37.32 394.46 37.32 394.46 37.32 394.46 37.32 394.46 37.32 394.46 37.32 394.46 37.32 394.46 37.32 394.46 37.32 394.46 37.32 394.46 37.32 394.46 37.32 394.46 37.32 394.46 37.32 394.46 37.32 394.46 37.32 394.46 37.32 394.46 37.32 394.46 37.32 394.46 37.32 394.46 37.32 394.46 37.32 394.46 37.32 394.46 37.32 394.46 37.32 394.46 37.32 394.46 37.32 394.46 37.32 394.46 37.32 394.46 37.32 394.46 37.32 394.46 37.32 394.46 37.32 394.46 37.32 394.46 37.32 394.46 37.32 394.46 37.32 394.46 37.32 394.46 37.32 394.46 37.32 394.46 37.32 394.46 37.32 394.46 37.32 394.46 37.32 394.46 37.32 394.46 37.32 394.46 37.32 394.46 37.32 394.46 37.32 394.46 37.32 394.46 37.32 394.46 37.32 394.46 37.32 394.46 37.32 394.46 37.32 394.46 37.32 394.46 37.32 394.46 37.32 394.46 37.32 394.46 37.32 394.46 37.32 394.46 37.32 394.46 37.32 394.46 37.32 394.46 37.32 394.46 37.32 394.46 37.32 394.46 37.32 394.46 37.32 394.46 37.32 394.46 37.32 394.46 37.32 394.46 37.32"/>
  <polygon class="st1" points="394.46 244.23 394.46 244.23 394.46 244.23 394.46 244.23 394.46 244.23 394.46 244.23 394.46 244.23 394.46 244.23 394.46 244.23 394.46 244.23 394.46 244.23 394.46 244.23 394.46 244.23 394.46 244.23 394.46 244.23 394.46 244.23 394.46 244.23 394.46 244.23 394.46 244.23 394.46 244.23 394.46 244.23 394.46 244.23 394.46 244.23 394.46 244.23 394.46 244.23 394.46 244.23 394.46 244.23 394.46 244.23 394.46 244.23 394.46 244.23 394.46 244.23 394.46 244.23 394.46 244.23 394.46 244.23 394.46 244.23 394.46 244.23 394.46 244.23 394.46 244.23 394.46 244.23 394.46 244.23 394.46 244.23 394.46 244.23 394.46 244.23 394.46 244.23 394.46 244.23 394.46 244.23 394.46 244.23 394.46 244.23 394.46 244.23 394.46 244.23 394.46 244.23 394.46 244.23 394.46 244.23 394.46 244.23 394.46 244.23 394.46 244.23 394.46 244.23 394.46 244.23 394.46 244.23 394.46 244.23 394.46 244.23 394.46 244.23 394.46 244.23 394.46 244.23 394.46 244.23 394.46 244.23 394.46 244.23 394.46 244.23 394.46 244.23 394.46 244.23 394.46 244.23 394.46 244.23 394.46 244.23 394.46 244.23 394.46 244.23 394.46 244.23 394.46 244.23 394.46 244.23 394.46 244.23 394.46 244.23 394.46 244.23 394.46 244.23 394.46 244.23 394.46 244.23 394.46 244.23 394.46 244.23 394.46 244.23"/>
  <polygon class="st1" points="324.18 141.09 324.18 141.09 324.18 141.09 324.18 141.09 324.18 141.09 324.18 141.09 324.18 141.09 324.18 141.09 324.18 141.09 324.18 141.09 324.18 141.09 324.18 141.09 324.18 141.09 324.18 141.09 324.18 141.09 324.18 141.09 324.18 141.09 324.18 141.09 324.18 141.09 324.18 141.09 324.18 141.09 324.18 141.09 324.18 141.09 324.18 141.09 324.18 141.09 324.18 141.09 324.18 141.09 324.18 141.09 324.18 141.09 324.18 141.09 324.18 141.09 324.18 141.09 324.18 141.09 324.18 141.09 324.18 141.09 324.18 141.09 324.18 141.09 324.18 141.09 324.18 141.09 324.18 141.09 324.18 141.09 324.18 141.09 324.18 141.09 324.18 141.09 324.18 141.09 324.18 141.09 324.18 141.09 324.18 141.09 324.18 141.09 324.18 141.09 324.18 141.09 324.18 141.09 324.18 141.09 324.18 141.09 324.18 141.09 324.18 141.09 324.18 141.09 324.18 141.09 324.18 141.09 324.18 141.09 324.18 141.09 324.18 141.09 324.18 141.09 324.18 141.09 324.18 141.09 324.18 141.09 324.18 141.09 324.18 141.09 324.18 141.09 324.18 141.09 324.18 141.09 324.18 141.09 324.18 141.09 324.18 141.09 324.18 141.09 324.18 141.09 324.18 141.09 324.18 141.09 324.18 141.09 324.18 141.09 324.18 141.09 324.18 141.09 324.18 141.09 324.18 141.09 324.18 141.09 324.18 141.09 324.18 141.09"/>
  <polygon class="st1" points="194.11 195.23 194.11 195.23 194.11 195.23 194.11 195.23 194.11 195.23 194.11 195.23 194.11 195.23 194.11 195.23 194.11 195.23 194.11 195.23 194.11 195.23 194.11 195.23 194.11 195.23 194.11 195.23 194.11 195.23 194.11 195.23 194.11 195.23 194.11 195.23 194.11 195.23 194.11 195.23 194.11 195.23 194.11 195.23 194.11 195.23 194.11 195.23 194.11 195.23 194.11 195.23 194.11 195.23 194.11 195.23 194.11 195.23 194.11 195.23 194.11 195.23 194.11 195.23 194.11 195.23 194.11 195.23 194.11 195.23 194.11 195.23 194.11 195.23 194.11 195.23 194.11 195.23 194.11 195.23 194.11 195.23 194.11 195.23 194.11 195.23 194.11 195.23 194.11 195.23 194.11 195.23 194.11 195.23 194.11 195.23 194.11 195.23 194.11 195.23 194.11 195.23 194.11 195.23 194.11 195.23 194.11 195.23 194.11 195.23 194.11 195.23 194.11 195.23 194.11 195.23 194.11 195.23 194.11 195.23 194.11 195.23 194.11 195.23 194.11 195.23 194.11 195.23 194.11 195.23 194.11 195.23 194.11 195.23 194.11 195.23 194.11 195.23 194.11 195.23 194.11 195.23 194.11 195.23 194.11 195.23 194.11 195.23 194.11 195.23 194.11 195.23 194.11 195.23 194.11 195.23 194.11 195.23 194.11 195.23 194.11 195.23 194.11 195.23 194.11 195.23 194.11 195.23 194.11 195.23 194.11 195.23 194.11 195.23"/>
  <g class="st12">
    <path class="st1" d="M236.93,257.43h0Z"/>
    <path d="M241.46,251.37c-.35.33-1.18,1.03-1.18,1.48,0,.25.25.5.5.5.23,0,.35-.18.48-.33.3-.38.88-1.08,1.99-1.63.18-.1.43-.23.43-.53,0-.25-.18-.38-.35-.5-.55-.38-.83-.83-1.03-1.43-.05-.23-.15-.55-.5-.55s-.5.33-.5.53c0,.13.2.93.6,1.46h-8.47c-.43,0-.88,0-.88.5s.45.5.88.5h8.05"/>
    <path d="M240.7,256.98c0-1.36-.65-1.76-1.11-1.76-.63,0-1.23.65-1.23,1.21,0,.33.13.48.4.76.53.5.86,1.16.86,2.06,0,1.06-1.53,6.81-4.48,6.81-1.28,0-1.86-.88-1.86-2.19,0-1.41.68-3.24,1.46-5.33.18-.43.3-.78.3-1.26,0-1.13-.8-2.06-2.06-2.06-2.36,0-3.32,3.65-3.32,3.87,0,.25.25.25.3.25.25,0,.28-.05.4-.45.73-2.54,1.81-3.12,2.54-3.12.2,0,.63,0,.63.8,0,.63-.25,1.31-.43,1.76-1.11,2.92-1.43,4.07-1.43,5.16,0,2.72,2.21,3.12,3.37,3.12,4.22,0,5.66-8.32,5.66-9.63"/>
  </g>
  <g class="st10">
    <path class="st1" d="M236.93,20.1h0Z"/>
    <path d="M241.46,14.04c-.35.33-1.18,1.03-1.18,1.48,0,.25.25.5.5.5.23,0,.35-.18.48-.33.3-.38.88-1.08,1.99-1.63.18-.1.43-.23.43-.53,0-.25-.18-.38-.35-.5-.55-.38-.83-.83-1.03-1.43-.05-.23-.15-.55-.5-.55s-.5.33-.5.53c0,.13.2.93.6,1.46h-8.47c-.43,0-.88,0-.88.5s.45.5.88.5h8.05"/>
    <path d="M240.7,19.65c0-1.36-.65-1.76-1.11-1.76-.63,0-1.23.65-1.23,1.21,0,.33.13.48.4.76.53.5.86,1.16.86,2.06,0,1.06-1.53,6.81-4.48,6.81-1.28,0-1.86-.88-1.86-2.19,0-1.41.68-3.24,1.46-5.33.18-.43.3-.78.3-1.26,0-1.13-.8-2.06-2.06-2.06-2.36,0-3.32,3.65-3.32,3.87,0,.25.25.25.3.25.25,0,.28-.05.4-.45.73-2.54,1.81-3.12,2.54-3.12.2,0,.63,0,.63.8,0,.63-.25,1.31-.43,1.76-1.11,2.92-1.43,4.07-1.43,5.16,0,2.72,2.21,3.12,3.37,3.12,4.22,0,5.66-8.32,5.66-9.63"/>
  </g>
  <polygon class="st1" points="306.04 169.75 306.04 169.75 306.04 169.75 306.04 169.75 306.04 169.75 306.04 169.75 306.04 169.75 306.04 169.75 306.04 169.75 306.04 169.75 306.04 169.75 306.04 169.75 306.04 169.75 306.04 169.75 306.04 169.75 306.04 169.75 306.04 169.75 306.04 169.75 306.04 169.75 306.04 169.75 306.04 169.75 306.04 169.75 306.04 169.75 306.04 169.75 306.04 169.75 306.04 169.75 306.04 169.75 306.04 169.75 306.04 169.75 306.04 169.75 306.04 169.75 306.04 169.75 306.04 169.75 306.04 169.75 306.04 169.75 306.04 169.75 306.04 169.75 306.04 169.75 306.04 169.75 306.04 169.75 306.04 169.75 306.04 169.75 306.04 169.75 306.04 169.75 306.04 169.75 306.04 169.75 306.04 169.75 306.04 169.75 306.04 169.75 306.04 169.75 306.04 169.75 306.04 169.75 306.04 169.75 306.04 169.75 306.04 169.75 306.04 169.75 306.04 169.75 306.04 169.75 306.04 169.75 306.04 169.75 306.04 169.75 306.04 169.75 306.04 169.75 306.04 169.75 306.04 169.75 306.04 169.75 306.04 169.75 306.04 169.75 306.04 169.75 306.04 169.75 306.04 169.75 306.04 169.75 306.04 169.75 306.04 169.75 306.04 169.75 306.04 169.75 306.04 169.75 306.04 169.75 306.04 169.75 306.04 169.75 306.04 169.75 306.04 169.75 306.04 169.75 306.04 169.75 306.04 169.75 306.04 169.75 306.04 169.75"/>
  <g class="st11">
    <path class="st1" d="M309.23,176.85h0Z"/>
    <path d="M309.33,165.67c-.35.33-1.18,1.03-1.18,1.48,0,.25.25.5.5.5.23,0,.35-.18.48-.33.3-.38.88-1.08,1.99-1.63.18-.1.43-.23.43-.53,0-.25-.18-.38-.35-.5-.55-.38-.83-.83-1.03-1.43-.05-.23-.15-.55-.5-.55s-.5.33-.5.53c0,.13.2.93.6,1.46h-8.47c-.43,0-.88,0-.88.5s.45.5.88.5h8.05"/>
    <path d="M299.73,178.78h2.44c1.89,0,2.09.4,2.09,1.13,0,.18,0,.48-.18,1.23-.05.12-.08.23-.08.28,0,.2.15.3.3.3.25,0,.25-.08.38-.53l1.38-5.46c.08-.28.08-.33.08-.4,0-.05-.05-.28-.3-.28s-.28.13-.38.53c-.53,1.96-1.11,2.41-3.24,2.41h-2.29l1.61-6.39c.23-.88.25-.98,1.36-.98h3.32c3.09,0,3.67.83,3.67,2.77,0,.58,0,.68-.08,1.36-.05.33-.05.38-.05.45,0,.13.08.3.3.3.28,0,.3-.15.35-.63l.5-4.35c.08-.68-.05-.68-.68-.68h-12.32c-.5,0-.75,0-.75.5,0,.28.23.28.7.28.93,0,1.64,0,1.64.45,0,.1,0,.15-.13.6l-3.32,13.3c-.25.98-.3,1.18-2.29,1.18-.43,0-.7,0-.7.48,0,.3.3.3.38.3.73,0,2.59-.08,3.32-.08.83,0,2.92.08,3.75.08.23,0,.53,0,.53-.48,0-.2-.15-.25-.15-.28-.07-.03-.12-.03-.7-.03s-.68,0-1.31-.05c-.73-.08-.8-.18-.8-.5,0-.05,0-.2.1-.58l1.56-6.26"/>
    <path d="M315.95,189.31c-.09.35-.25.95-.25,1.04,0,.39.32.56.6.56.32,0,.6-.23.69-.39.09-.16.23-.72.32-1.09.09-.33.28-1.14.39-1.58.11-.39.21-.77.3-1.18.19-.76.19-.79.54-1.34.56-.86,1.44-1.87,2.82-1.87.99,0,1.04.81,1.04,1.23,0,1.06-.76,3.01-1.04,3.75-.19.49-.26.65-.26.95,0,.93.77,1.51,1.67,1.51,1.76,0,2.54-2.43,2.54-2.69,0-.23-.23-.23-.28-.23-.25,0-.26.11-.33.3-.41,1.41-1.16,2.13-1.87,2.13-.37,0-.44-.25-.44-.62,0-.4.09-.63.4-1.43.21-.55.93-2.41.93-3.4,0-.28,0-1.02-.65-1.53-.3-.23-.81-.47-1.64-.47-1.58,0-2.55,1.04-3.12,1.78-.14-1.5-1.39-1.78-2.29-1.78-1.46,0-2.45.9-2.97,1.6-.12-1.21-1.16-1.6-1.88-1.6s-1.16.54-1.39.95c-.39.65-.63,1.65-.63,1.74,0,.23.25.23.3.23.25,0,.26-.05.39-.53.26-1.04.6-1.9,1.28-1.9.46,0,.58.39.58.86,0,.33-.16.99-.28,1.46-.12.47-.3,1.2-.39,1.58l-.56,2.25c-.07.23-.18.67-.18.72,0,.39.32.56.6.56.32,0,.6-.23.69-.39.09-.16.23-.72.32-1.09.09-.33.28-1.14.39-1.58.11-.39.21-.77.3-1.18.19-.72.23-.86.74-1.58.49-.7,1.32-1.62,2.64-1.62,1.02,0,1.04.9,1.04,1.23,0,.44-.05.67-.3,1.66l-.74,2.96"/>
  </g>
  <polygon class="st1" points="313.94 92.17 313.94 92.17 313.94 92.17 313.94 92.17 313.94 92.17 313.94 92.17 313.94 92.17 313.94 92.17 313.94 92.17 313.94 92.17 313.94 92.17 313.94 92.17 313.94 92.17 313.94 92.17 313.94 92.17 313.94 92.17 313.94 92.17 313.94 92.17 313.94 92.17 313.94 92.17 313.94 92.17 313.94 92.17 313.94 92.17 313.94 92.17 313.94 92.17 313.94 92.17 313.94 92.17 313.94 92.17 313.94 92.17 313.94 92.17 313.94 92.17 313.94 92.17 313.94 92.17 313.94 92.17 313.94 92.17 313.94 92.17 313.94 92.17 313.94 92.17 313.94 92.17 313.94 92.17 313.94 92.17 313.94 92.17 313.94 92.17 313.94 92.17 313.94 92.17 313.94 92.17 313.94 92.17 313.94 92.17 313.94 92.17 313.94 92.17 313.94 92.17 313.94 92.17 313.94 92.17 313.94 92.17 313.94 92.17 313.94 92.17 313.94 92.17 313.94 92.17 313.94 92.17 313.94 92.17 313.94 92.17 313.94 92.17 313.94 92.17 313.94 92.17 313.94 92.17 313.94 92.17 313.94 92.17 313.94 92.17 313.94 92.17 313.94 92.17 313.94 92.17 313.94 92.17 313.94 92.17 313.94 92.17 313.94 92.17 313.94 92.17 313.94 92.17 313.94 92.17 313.94 92.17 313.94 92.17 313.94 92.17 313.94 92.17 313.94 92.17 313.94 92.17 313.94 92.17 313.94 92.17"/>
  <g class="st14">
    <path class="st1" d="M346.73,98.13h0Z"/>
    <path d="M343.19,102.19c-.08.38-.23.96-.23,1.08,0,.45.35.68.73.68.3,0,.75-.2.93-.7.05-.1.91-3.52,1.01-3.97.2-.83.65-2.59.8-3.27.1-.33.8-1.51,1.41-2.06.2-.18.93-.83,2.01-.83.65,0,1.03.3,1.06.3-.76.13-1.31.73-1.31,1.38,0,.4.28.88.95.88s1.38-.58,1.38-1.48-.8-1.63-2.09-1.63c-1.63,0-2.74,1.23-3.22,1.94-.2-1.13-1.11-1.94-2.29-1.94s-1.63.98-1.86,1.43c-.45.85-.78,2.36-.78,2.44,0,.25.25.25.3.25.25,0,.28-.02.43-.58.43-1.79.93-2.99,1.83-2.99.43,0,.78.2.78,1.16,0,.53-.07.8-.4,2.11l-1.46,5.81"/>
  </g>
  <polygon class="st1" points="225.64 190.39 225.64 190.39 225.64 190.39 225.64 190.39 225.64 190.39 225.64 190.39 225.64 190.39 225.64 190.39 225.64 190.39 225.64 190.39 225.64 190.39 225.64 190.39 225.64 190.39 225.64 190.39 225.64 190.39 225.64 190.39 225.64 190.39 225.64 190.39 225.64 190.39 225.64 190.39 225.64 190.39 225.64 190.39 225.64 190.39 225.64 190.39 225.64 190.39 225.64 190.39 225.64 190.39 225.64 190.39 225.64 190.39 225.64 190.39 225.64 190.39 225.64 190.39 225.64 190.39 225.64 190.39 225.64 190.39 225.64 190.39 225.64 190.39 225.64 190.39 225.64 190.39 225.64 190.39 225.64 190.39 225.64 190.39 225.64 190.39 225.64 190.39 225.64 190.39 225.64 190.39 225.64 190.39 225.64 190.39 225.64 190.39 225.64 190.39 225.64 190.39 225.64 190.39 225.64 190.39 225.64 190.39 225.64 190.39 225.64 190.39 225.64 190.39 225.64 190.39 225.64 190.39 225.64 190.39 225.64 190.39 225.64 190.39 225.64 190.39 225.64 190.39 225.64 190.39 225.64 190.39 225.64 190.39 225.64 190.39 225.64 190.39 225.64 190.39 225.64 190.39 225.64 190.39 225.64 190.39 225.64 190.39 225.64 190.39 225.64 190.39 225.64 190.39 225.64 190.39 225.64 190.39 225.64 190.39 225.64 190.39 225.64 190.39 225.64 190.39 225.64 190.39 225.64 190.39 225.64 190.39 225.64 190.39"/>
  <g class="st13">
    <path class="st1" d="M391.24,241.22h0Z"/>
    <path d="M398.29,232.15c-.35.33-1.18,1.03-1.18,1.48,0,.25.25.5.5.5.23,0,.35-.18.48-.33.3-.38.88-1.08,1.99-1.63.18-.1.43-.23.43-.53,0-.25-.18-.38-.35-.5-.55-.38-.83-.83-1.03-1.43-.05-.23-.15-.55-.5-.55s-.5.33-.5.53c0,.13.2.93.6,1.46h-8.47c-.43,0-.88,0-.88.5s.45.5.88.5h8.05"/>
    <path d="M387.41,252.64c-.35,0-.4,0-.55-.03-.25-.03-.33-.05-.33-.25,0-.07,0-.12.13-.58l1.74-7.02h4.75c2.41,0,2.89,1.86,2.89,2.94,0,2.49-2.24,4.93-5.21,4.93h-3.42M388.54,244.22l1.56-6.24c.23-.88.28-.95,1.36-.95h3.24c2.21,0,2.74,1.48,2.74,2.59,0,2.21-2.16,4.6-5.23,4.6h-3.67ZM384.74,251.46c-.25.98-.3,1.18-2.29,1.18-.43,0-.68,0-.68.5,0,.28.23.28.68.28h8.98c3.97,0,6.94-2.97,6.94-5.43,0-1.81-1.46-3.27-3.9-3.55,2.61-.48,5.25-2.34,5.25-4.73,0-1.86-1.66-3.47-4.68-3.47h-8.45c-.48,0-.73,0-.73.5,0,.28.23.28.7.28.05,0,.53,0,.96.05.45.05.68.08.68.4,0,.1-.03.18-.1.48l-3.37,13.5Z"/>
  </g>
</svg>