<?xml version="1.0" encoding="UTF-8"?>
<svg id="Layer_1" xmlns="http://www.w3.org/2000/svg" xmlns:xlink="http://www.w3.org/1999/xlink" version="1.1" viewBox="0 0 294.16 283.46">
  <!-- Generator: Adobe Illustrator 29.1.0, SVG Export Plug-In . SVG Version: 2.1.0 Build 142)  -->
  <defs>
    <style>
      .st0, .st1, .st2, .st3, .st4 {
        fill: none;
      }

      .st5 {
        fill: #231f20;
      }

      .st1 {
        opacity: 0;
        stroke: #000;
      }

      .st1, .st2, .st3, .st6, .st4, .st7 {
        stroke-miterlimit: 10;
      }

      .st8 {
        clip-path: url(#clippath-1);
      }

      .st9 {
        clip-path: url(#clippath-3);
      }

      .st10 {
        clip-path: url(#clippath-4);
      }

      .st11 {
        clip-path: url(#clippath-2);
      }

      .st12 {
        clip-path: url(#clippath-5);
      }

      .st2 {
        stroke-width: 1.5px;
      }

      .st2, .st3, .st4, .st7 {
        stroke: #231f20;
      }

      .st3 {
        stroke-width: 2px;
      }

      .st6 {
        fill: #fff;
        stroke: #6d6e71;
      }

      .st4 {
        stroke-width: 3px;
      }

      .st13 {
        clip-path: url(#clippath);
      }

      .st7 {
        fill: #ed2024;
        stroke-width: 1.2px;
      }
    </style>
    <clipPath id="clippath">
      <rect class="st0" x="126.25" y="20.1" width="129.78" height="243.27"/>
    </clipPath>
    <clipPath id="clippath-1">
      <rect class="st0" x="70.18" y="247.96" width="14.73" height="18.94"/>
    </clipPath>
    <clipPath id="clippath-2">
      <rect class="st0" x="70.18" y="10.63" width="14.73" height="18.94"/>
    </clipPath>
    <clipPath id="clippath-3">
      <rect class="st0" x="133.71" y="162.11" width="32.27" height="29.46"/>
    </clipPath>
    <clipPath id="clippath-4">
      <rect class="st0" x="181.74" y="92.17" width="11.22" height="11.93"/>
    </clipPath>
    <clipPath id="clippath-5">
      <rect class="st0" x="222.39" y="228.59" width="18.94" height="25.25"/>
    </clipPath>
  </defs>
  <g class="st13">
    <g>
      <g>
        <circle class="st6" cx="130.76" cy="24.61" r="4.01"/>
        <circle class="st6" cx="130.76" cy="24.61" r="1.5"/>
      </g>
      <g>
        <circle class="st6" cx="160.05" cy="24.61" r="4.01"/>
        <circle class="st6" cx="160.05" cy="24.61" r="1.5"/>
      </g>
      <g>
        <circle class="st6" cx="189.34" cy="24.61" r="4.01"/>
        <circle class="st6" cx="189.34" cy="24.61" r="1.5"/>
      </g>
      <g>
        <circle class="st6" cx="218.63" cy="24.61" r="4.01"/>
        <circle class="st6" cx="218.63" cy="24.61" r="1.5"/>
      </g>
      <g>
        <circle class="st6" cx="247.92" cy="24.61" r="4.01"/>
        <circle class="st6" cx="247.92" cy="24.61" r="1.5"/>
      </g>
      <g>
        <circle class="st6" cx="130.76" cy="53.9" r="4.01"/>
        <circle class="st6" cx="130.76" cy="53.9" r="1.5"/>
      </g>
      <g>
        <circle class="st6" cx="160.05" cy="53.9" r="4.01"/>
        <circle class="st6" cx="160.05" cy="53.9" r="1.5"/>
      </g>
      <g>
        <circle class="st6" cx="189.34" cy="53.9" r="4.01"/>
        <circle class="st6" cx="189.34" cy="53.9" r="1.5"/>
      </g>
      <g>
        <circle class="st6" cx="218.63" cy="53.9" r="4.01"/>
        <circle class="st6" cx="218.63" cy="53.9" r="1.5"/>
      </g>
      <g>
        <circle class="st6" cx="247.92" cy="53.9" r="4.01"/>
        <circle class="st6" cx="247.92" cy="53.9" r="1.5"/>
      </g>
      <g>
        <circle class="st6" cx="130.76" cy="83.19" r="4.01"/>
        <circle class="st6" cx="130.76" cy="83.19" r="1.5"/>
      </g>
      <g>
        <circle class="st6" cx="160.05" cy="83.19" r="4.01"/>
        <circle class="st6" cx="160.05" cy="83.19" r="1.5"/>
      </g>
      <g>
        <circle class="st6" cx="189.34" cy="83.19" r="4.01"/>
        <circle class="st6" cx="189.34" cy="83.19" r="1.5"/>
      </g>
      <g>
        <circle class="st6" cx="218.63" cy="83.19" r="4.01"/>
        <circle class="st6" cx="218.63" cy="83.19" r="1.5"/>
      </g>
      <g>
        <circle class="st6" cx="247.92" cy="83.19" r="4.01"/>
        <circle class="st6" cx="247.92" cy="83.19" r="1.5"/>
      </g>
      <g>
        <circle class="st6" cx="130.76" cy="112.48" r="4.01"/>
        <circle class="st6" cx="130.76" cy="112.48" r="1.5"/>
      </g>
      <g>
        <circle class="st6" cx="160.05" cy="112.48" r="4.01"/>
        <circle class="st6" cx="160.05" cy="112.48" r="1.5"/>
      </g>
      <g>
        <circle class="st6" cx="189.34" cy="112.48" r="4.01"/>
        <circle class="st6" cx="189.34" cy="112.48" r="1.5"/>
      </g>
      <g>
        <circle class="st6" cx="218.63" cy="112.48" r="4.01"/>
        <circle class="st6" cx="218.63" cy="112.48" r="1.5"/>
      </g>
      <g>
        <circle class="st6" cx="247.92" cy="112.48" r="4.01"/>
        <circle class="st6" cx="247.92" cy="112.48" r="1.5"/>
      </g>
      <g>
        <circle class="st6" cx="130.76" cy="141.77" r="4.01"/>
        <circle class="st6" cx="130.76" cy="141.77" r="1.5"/>
      </g>
      <g>
        <circle class="st6" cx="160.05" cy="141.77" r="4.01"/>
        <circle class="st6" cx="160.05" cy="141.77" r="1.5"/>
      </g>
      <g>
        <circle class="st6" cx="189.34" cy="141.77" r="4.01"/>
        <circle class="st6" cx="189.34" cy="141.77" r="1.5"/>
      </g>
      <g>
        <circle class="st6" cx="218.63" cy="141.77" r="4.01"/>
        <circle class="st6" cx="218.63" cy="141.77" r="1.5"/>
      </g>
      <g>
        <circle class="st6" cx="247.92" cy="141.77" r="4.01"/>
        <circle class="st6" cx="247.92" cy="141.77" r="1.5"/>
      </g>
      <g>
        <circle class="st6" cx="130.76" cy="171.06" r="4.01"/>
        <circle class="st6" cx="130.76" cy="171.06" r="1.5"/>
      </g>
      <g>
        <circle class="st6" cx="160.05" cy="171.06" r="4.01"/>
        <circle class="st6" cx="160.05" cy="171.06" r="1.5"/>
      </g>
      <g>
        <circle class="st6" cx="189.34" cy="171.06" r="4.01"/>
        <circle class="st6" cx="189.34" cy="171.06" r="1.5"/>
      </g>
      <g>
        <circle class="st6" cx="218.63" cy="171.06" r="4.01"/>
        <circle class="st6" cx="218.63" cy="171.06" r="1.5"/>
      </g>
      <g>
        <circle class="st6" cx="247.92" cy="171.06" r="4.01"/>
        <circle class="st6" cx="247.92" cy="171.06" r="1.5"/>
      </g>
      <g>
        <circle class="st6" cx="130.76" cy="200.35" r="4.01"/>
        <circle class="st6" cx="130.76" cy="200.35" r="1.5"/>
      </g>
      <g>
        <circle class="st6" cx="160.05" cy="200.35" r="4.01"/>
        <circle class="st6" cx="160.05" cy="200.35" r="1.5"/>
      </g>
      <g>
        <circle class="st6" cx="189.34" cy="200.35" r="4.01"/>
        <circle class="st6" cx="189.34" cy="200.35" r="1.5"/>
      </g>
      <g>
        <circle class="st6" cx="218.63" cy="200.35" r="4.01"/>
        <circle class="st6" cx="218.63" cy="200.35" r="1.5"/>
      </g>
      <g>
        <circle class="st6" cx="247.92" cy="200.35" r="4.01"/>
        <circle class="st6" cx="247.92" cy="200.35" r="1.5"/>
      </g>
      <g>
        <circle class="st6" cx="130.76" cy="229.64" r="4.01"/>
        <circle class="st6" cx="130.76" cy="229.64" r="1.5"/>
      </g>
      <g>
        <circle class="st6" cx="160.05" cy="229.64" r="4.01"/>
        <circle class="st6" cx="160.05" cy="229.64" r="1.5"/>
      </g>
      <g>
        <circle class="st6" cx="189.34" cy="229.64" r="4.01"/>
        <circle class="st6" cx="189.34" cy="229.64" r="1.5"/>
      </g>
      <g>
        <circle class="st6" cx="218.63" cy="229.64" r="4.01"/>
        <circle class="st6" cx="218.63" cy="229.64" r="1.5"/>
      </g>
      <g>
        <circle class="st6" cx="247.92" cy="229.64" r="4.01"/>
        <circle class="st6" cx="247.92" cy="229.64" r="1.5"/>
      </g>
      <g>
        <circle class="st6" cx="130.76" cy="258.92" r="4.01"/>
        <circle class="st6" cx="130.76" cy="258.92" r="1.5"/>
      </g>
      <g>
        <circle class="st6" cx="160.05" cy="258.92" r="4.01"/>
        <circle class="st6" cx="160.05" cy="258.92" r="1.5"/>
      </g>
      <g>
        <circle class="st6" cx="189.34" cy="258.92" r="4.01"/>
        <circle class="st6" cx="189.34" cy="258.92" r="1.5"/>
      </g>
      <g>
        <circle class="st6" cx="218.63" cy="258.92" r="4.01"/>
        <circle class="st6" cx="218.63" cy="258.92" r="1.5"/>
      </g>
      <g>
        <circle class="st6" cx="247.92" cy="258.92" r="4.01"/>
        <circle class="st6" cx="247.92" cy="258.92" r="1.5"/>
      </g>
    </g>
  </g>
  <path class="st4" d="M38.85,48.65h87.4c51.24,0,92.78,41.54,92.78,92.78s-41.54,92.78-92.78,92.78h-43.2"/>
  <g>
    <line class="st3" x1="126.25" y1="141.77" x2="200.48" y2="102.45"/>
    <polygon class="st5" points="199.36 109.33 198.84 103.32 194.16 99.52 208.39 98.26 199.36 109.33"/>
  </g>
  <g>
    <line class="st3" x1="133.41" y1="147.15" x2="200.22" y2="197.45"/>
    <polygon class="st5" points="133.43 154.12 134.89 148.27 140.11 145.25 126.25 141.77 133.43 154.12"/>
  </g>
  <g>
    <circle class="st7" cx="24.33" cy="48.65" r="5.49"/>
    <line class="st7" x1="24.33" y1="45.3" x2="24.33" y2="52.01"/>
    <line class="st7" x1="20.97" y1="48.65" x2="27.68" y2="48.65"/>
  </g>
  <g>
    <circle class="st7" cx="200.22" cy="197.45" r="5.49"/>
    <line class="st7" x1="200.22" y1="194.1" x2="200.22" y2="200.81"/>
    <line class="st7" x1="196.86" y1="197.45" x2="203.57" y2="197.45"/>
  </g>
  <polygon class="st1" points="99.54 104.49 99.54 104.49 99.54 104.49 99.54 104.49 99.54 104.49 99.54 104.49 99.54 104.49 99.54 104.49 99.54 104.49 99.54 104.49 99.54 104.49 99.54 104.49 99.54 104.49 99.54 104.49 99.54 104.49 99.54 104.49 99.54 104.49 99.54 104.49 99.54 104.49 99.54 104.49 99.54 104.49 99.54 104.49 99.54 104.49 99.54 104.49 99.54 104.49 99.54 104.49 99.54 104.49 99.54 104.49 99.54 104.49 99.54 104.49 99.54 104.49 99.54 104.49 99.54 104.49 99.54 104.49 99.54 104.49 99.54 104.49 99.54 104.49 99.54 104.49 99.54 104.49 99.54 104.49 99.54 104.49 99.54 104.49 99.54 104.49 99.54 104.49 99.54 104.49 99.54 104.49 99.54 104.49 99.54 104.49 99.54 104.49 99.54 104.49 99.54 104.49 99.54 104.49 99.54 104.49 99.54 104.49 99.54 104.49 99.54 104.49 99.54 104.49 99.54 104.49 99.54 104.49 99.54 104.49 99.54 104.49 99.54 104.49 99.54 104.49 99.54 104.49 99.54 104.49 99.54 104.49 99.54 104.49 99.54 104.49 99.54 104.49 99.54 104.49 99.54 104.49 99.54 104.49 99.54 104.49 99.54 104.49 99.54 104.49 99.54 104.49 99.54 104.49 99.54 104.49 99.54 104.49 99.54 104.49 99.54 104.49 99.54 104.49 99.54 104.49 99.54 104.49 99.54 104.49 99.54 104.49"/>
  <polygon class="st1" points="69.32 162.5 69.32 162.5 69.32 162.5 69.32 162.5 69.32 162.5 69.32 162.5 69.32 162.5 69.32 162.5 69.32 162.5 69.32 162.5 69.32 162.5 69.32 162.5 69.32 162.5 69.32 162.5 69.32 162.5 69.32 162.5 69.32 162.5 69.32 162.5 69.32 162.5 69.32 162.5 69.32 162.5 69.32 162.5 69.32 162.5 69.32 162.5 69.32 162.5 69.32 162.5 69.32 162.5 69.32 162.5 69.32 162.5 69.32 162.5 69.32 162.5 69.32 162.5 69.32 162.5 69.32 162.5 69.32 162.5 69.32 162.5 69.32 162.5 69.32 162.5 69.32 162.5 69.32 162.5 69.32 162.5 69.32 162.5 69.32 162.5 69.32 162.5 69.32 162.5 69.32 162.5 69.32 162.5 69.32 162.5 69.32 162.5 69.32 162.5 69.32 162.5 69.32 162.5 69.32 162.5 69.32 162.5 69.32 162.5 69.32 162.5 69.32 162.5 69.32 162.5 69.32 162.5 69.32 162.5 69.32 162.5 69.32 162.5 69.32 162.5 69.32 162.5 69.32 162.5 69.32 162.5 69.32 162.5 69.32 162.5 69.32 162.5 69.32 162.5 69.32 162.5 69.32 162.5 69.32 162.5 69.32 162.5 69.32 162.5 69.32 162.5 69.32 162.5 69.32 162.5 69.32 162.5 69.32 162.5 69.32 162.5 69.32 162.5 69.32 162.5 69.32 162.5 69.32 162.5 69.32 162.5"/>
  <g>
    <line class="st2" x1="57.35" y1="36.06" x2="91.04" y2="36.06"/>
    <polygon class="st5" points="87.88 40.22 89.65 36.06 87.88 31.89 97.75 36.06 87.88 40.22"/>
  </g>
  <polygon class="st1" points="161.52 83.51 161.52 83.51 161.52 83.51 161.52 83.51 161.52 83.51 161.52 83.51 161.52 83.51 161.52 83.51 161.52 83.51 161.52 83.51 161.52 83.51 161.52 83.51 161.52 83.51 161.52 83.51 161.52 83.51 161.52 83.51 161.52 83.51 161.52 83.51 161.52 83.51 161.52 83.51 161.52 83.51 161.52 83.51 161.52 83.51 161.52 83.51 161.52 83.51 161.52 83.51 161.52 83.51 161.52 83.51 161.52 83.51 161.52 83.51 161.52 83.51 161.52 83.51 161.52 83.51 161.52 83.51 161.52 83.51 161.52 83.51 161.52 83.51 161.52 83.51 161.52 83.51 161.52 83.51 161.52 83.51 161.52 83.51 161.52 83.51 161.52 83.51 161.52 83.51 161.52 83.51 161.52 83.51 161.52 83.51 161.52 83.51 161.52 83.51 161.52 83.51 161.52 83.51 161.52 83.51 161.52 83.51 161.52 83.51 161.52 83.51 161.52 83.51 161.52 83.51 161.52 83.51 161.52 83.51 161.52 83.51 161.52 83.51 161.52 83.51 161.52 83.51 161.52 83.51 161.52 83.51 161.52 83.51 161.52 83.51 161.52 83.51 161.52 83.51 161.52 83.51 161.52 83.51 161.52 83.51 161.52 83.51 161.52 83.51 161.52 83.51 161.52 83.51 161.52 83.51 161.52 83.51 161.52 83.51 161.52 83.51 161.52 83.51 161.52 83.51 161.52 83.51 161.52 83.51 161.52 83.51"/>
  <g>
    <line class="st2" x1="64.06" y1="244.23" x2="97.75" y2="244.23"/>
    <polygon class="st5" points="67.22 248.4 65.45 244.23 67.22 240.07 57.35 244.23 67.22 248.4"/>
  </g>
  <g>
    <path class="st2" d="M196.81,67.77c9.01,8.96,16.19,19.75,20.94,31.78"/>
    <polygon class="st5" points="212.68 98.03 217.2 98.26 220.51 95.17 219.98 105.88 212.68 98.03"/>
  </g>
  <polygon class="st1" points="235.08 37.32 235.08 37.32 235.08 37.32 235.08 37.32 235.08 37.32 235.08 37.32 235.08 37.32 235.08 37.32 235.08 37.32 235.08 37.32 235.08 37.32 235.08 37.32 235.08 37.32 235.08 37.32 235.08 37.32 235.08 37.32 235.08 37.32 235.08 37.32 235.08 37.32 235.08 37.32 235.08 37.32 235.08 37.32 235.08 37.32 235.08 37.32 235.08 37.32 235.08 37.32 235.08 37.32 235.08 37.32 235.08 37.32 235.08 37.32 235.08 37.32 235.08 37.32 235.08 37.32 235.08 37.32 235.08 37.32 235.08 37.32 235.08 37.32 235.08 37.32 235.08 37.32 235.08 37.32 235.08 37.32 235.08 37.32 235.08 37.32 235.08 37.32 235.08 37.32 235.08 37.32 235.08 37.32 235.08 37.32 235.08 37.32 235.08 37.32 235.08 37.32 235.08 37.32 235.08 37.32 235.08 37.32 235.08 37.32 235.08 37.32 235.08 37.32 235.08 37.32 235.08 37.32 235.08 37.32 235.08 37.32 235.08 37.32 235.08 37.32 235.08 37.32 235.08 37.32 235.08 37.32 235.08 37.32 235.08 37.32 235.08 37.32 235.08 37.32 235.08 37.32 235.08 37.32 235.08 37.32 235.08 37.32 235.08 37.32 235.08 37.32 235.08 37.32 235.08 37.32 235.08 37.32 235.08 37.32 235.08 37.32 235.08 37.32 235.08 37.32 235.08 37.32 235.08 37.32 235.08 37.32"/>
  <polygon class="st1" points="235.08 244.23 235.08 244.23 235.08 244.23 235.08 244.23 235.08 244.23 235.08 244.23 235.08 244.23 235.08 244.23 235.08 244.23 235.08 244.23 235.08 244.23 235.08 244.23 235.08 244.23 235.08 244.23 235.08 244.23 235.08 244.23 235.08 244.23 235.08 244.23 235.08 244.23 235.08 244.23 235.08 244.23 235.08 244.23 235.08 244.23 235.08 244.23 235.08 244.23 235.08 244.23 235.08 244.23 235.08 244.23 235.08 244.23 235.08 244.23 235.08 244.23 235.08 244.23 235.08 244.23 235.08 244.23 235.08 244.23 235.08 244.23 235.08 244.23 235.08 244.23 235.08 244.23 235.08 244.23 235.08 244.23 235.08 244.23 235.08 244.23 235.08 244.23 235.08 244.23 235.08 244.23 235.08 244.23 235.08 244.23 235.08 244.23 235.08 244.23 235.08 244.23 235.08 244.23 235.08 244.23 235.08 244.23 235.08 244.23 235.08 244.23 235.08 244.23 235.08 244.23 235.08 244.23 235.08 244.23 235.08 244.23 235.08 244.23 235.08 244.23 235.08 244.23 235.08 244.23 235.08 244.23 235.08 244.23 235.08 244.23 235.08 244.23 235.08 244.23 235.08 244.23 235.08 244.23 235.08 244.23 235.08 244.23 235.08 244.23 235.08 244.23 235.08 244.23 235.08 244.23 235.08 244.23 235.08 244.23 235.08 244.23 235.08 244.23 235.08 244.23 235.08 244.23 235.08 244.23 235.08 244.23 235.08 244.23"/>
  <polygon class="st1" points="164.79 141.09 164.79 141.09 164.79 141.09 164.79 141.09 164.79 141.09 164.79 141.09 164.79 141.09 164.79 141.09 164.79 141.09 164.79 141.09 164.79 141.09 164.79 141.09 164.79 141.09 164.79 141.09 164.79 141.09 164.79 141.09 164.79 141.09 164.79 141.09 164.79 141.09 164.79 141.09 164.79 141.09 164.79 141.09 164.79 141.09 164.79 141.09 164.79 141.09 164.79 141.09 164.79 141.09 164.79 141.09 164.79 141.09 164.79 141.09 164.79 141.09 164.79 141.09 164.79 141.09 164.79 141.09 164.79 141.09 164.79 141.09 164.79 141.09 164.79 141.09 164.79 141.09 164.79 141.09 164.79 141.09 164.79 141.09 164.79 141.09 164.79 141.09 164.79 141.09 164.79 141.09 164.79 141.09 164.79 141.09 164.79 141.09 164.79 141.09 164.79 141.09 164.79 141.09 164.79 141.09 164.79 141.09 164.79 141.09 164.79 141.09 164.79 141.09 164.79 141.09 164.79 141.09 164.79 141.09 164.79 141.09 164.79 141.09 164.79 141.09 164.79 141.09 164.79 141.09 164.79 141.09 164.79 141.09 164.79 141.09 164.79 141.09 164.79 141.09 164.79 141.09 164.79 141.09 164.79 141.09 164.79 141.09 164.79 141.09 164.79 141.09 164.79 141.09 164.79 141.09 164.79 141.09 164.79 141.09 164.79 141.09 164.79 141.09 164.79 141.09 164.79 141.09 164.79 141.09 164.79 141.09 164.79 141.09"/>
  <polygon class="st1" points="34.72 195.23 34.72 195.23 34.72 195.23 34.72 195.23 34.72 195.23 34.72 195.23 34.72 195.23 34.72 195.23 34.72 195.23 34.72 195.23 34.72 195.23 34.72 195.23 34.72 195.23 34.72 195.23 34.72 195.23 34.72 195.23 34.72 195.23 34.72 195.23 34.72 195.23 34.72 195.23 34.72 195.23 34.72 195.23 34.72 195.23 34.72 195.23 34.72 195.23 34.72 195.23 34.72 195.23 34.72 195.23 34.72 195.23 34.72 195.23 34.72 195.23 34.72 195.23 34.72 195.23 34.72 195.23 34.72 195.23 34.72 195.23 34.72 195.23 34.72 195.23 34.72 195.23 34.72 195.23 34.72 195.23 34.72 195.23 34.72 195.23 34.72 195.23 34.72 195.23 34.72 195.23 34.72 195.23 34.72 195.23 34.72 195.23 34.72 195.23 34.72 195.23 34.72 195.23 34.72 195.23 34.72 195.23 34.72 195.23 34.72 195.23 34.72 195.23 34.72 195.23 34.72 195.23 34.72 195.23 34.72 195.23 34.72 195.23 34.72 195.23 34.72 195.23 34.72 195.23 34.72 195.23 34.72 195.23 34.72 195.23 34.72 195.23 34.72 195.23 34.72 195.23 34.72 195.23 34.72 195.23 34.72 195.23 34.72 195.23 34.72 195.23 34.72 195.23 34.72 195.23 34.72 195.23 34.72 195.23 34.72 195.23 34.72 195.23 34.72 195.23 34.72 195.23 34.72 195.23 34.72 195.23 34.72 195.23"/>
  <g class="st8">
    <path d="M82.07,251.37c-.35.33-1.18,1.03-1.18,1.48,0,.25.25.5.5.5.23,0,.35-.18.48-.33.3-.38.88-1.08,1.99-1.63.18-.1.43-.23.43-.53,0-.25-.18-.38-.35-.5-.55-.38-.83-.83-1.03-1.43-.05-.23-.15-.55-.5-.55s-.5.33-.5.53c0,.13.2.93.6,1.46h-8.47c-.43,0-.88,0-.88.5s.45.5.88.5h8.05"/>
    <path d="M81.32,256.98c0-1.36-.65-1.76-1.11-1.76-.63,0-1.23.65-1.23,1.21,0,.33.13.48.4.76.53.5.86,1.16.86,2.06,0,1.06-1.53,6.81-4.48,6.81-1.28,0-1.86-.88-1.86-2.19,0-1.41.68-3.24,1.46-5.33.18-.43.3-.78.3-1.26,0-1.13-.8-2.06-2.06-2.06-2.36,0-3.32,3.65-3.32,3.87,0,.25.25.25.3.25.25,0,.28-.05.4-.45.73-2.54,1.81-3.12,2.54-3.12.2,0,.63,0,.63.8,0,.63-.25,1.31-.43,1.76-1.11,2.92-1.43,4.07-1.43,5.16,0,2.72,2.21,3.12,3.37,3.12,4.22,0,5.66-8.32,5.66-9.63"/>
  </g>
  <g class="st11">
    <path d="M82.07,14.04c-.35.33-1.18,1.03-1.18,1.48,0,.25.25.5.5.5.23,0,.35-.18.48-.33.3-.38.88-1.08,1.99-1.63.18-.1.43-.23.43-.53,0-.25-.18-.38-.35-.5-.55-.38-.83-.83-1.03-1.43-.05-.23-.15-.55-.5-.55s-.5.33-.5.53c0,.13.2.93.6,1.46h-8.47c-.43,0-.88,0-.88.5s.45.5.88.5h8.05"/>
    <path d="M81.32,19.65c0-1.36-.65-1.76-1.11-1.76-.63,0-1.23.65-1.23,1.21,0,.33.13.48.4.76.53.5.86,1.16.86,2.06,0,1.06-1.53,6.81-4.48,6.81-1.28,0-1.86-.88-1.86-2.19,0-1.41.68-3.24,1.46-5.33.18-.43.3-.78.3-1.26,0-1.13-.8-2.06-2.06-2.06-2.36,0-3.32,3.65-3.32,3.87,0,.25.25.25.3.25.25,0,.28-.05.4-.45.73-2.54,1.81-3.12,2.54-3.12.2,0,.63,0,.63.8,0,.63-.25,1.31-.43,1.76-1.11,2.92-1.43,4.07-1.43,5.16,0,2.72,2.21,3.12,3.37,3.12,4.22,0,5.66-8.32,5.66-9.63"/>
  </g>
  <polygon class="st1" points="146.66 169.75 146.66 169.75 146.66 169.75 146.66 169.75 146.66 169.75 146.66 169.75 146.66 169.75 146.66 169.75 146.66 169.75 146.66 169.75 146.66 169.75 146.66 169.75 146.66 169.75 146.66 169.75 146.66 169.75 146.66 169.75 146.66 169.75 146.66 169.75 146.66 169.75 146.66 169.75 146.66 169.75 146.66 169.75 146.66 169.75 146.66 169.75 146.66 169.75 146.66 169.75 146.66 169.75 146.66 169.75 146.66 169.75 146.66 169.75 146.66 169.75 146.66 169.75 146.66 169.75 146.66 169.75 146.66 169.75 146.66 169.75 146.66 169.75 146.66 169.75 146.66 169.75 146.66 169.75 146.66 169.75 146.66 169.75 146.66 169.75 146.66 169.75 146.66 169.75 146.66 169.75 146.66 169.75 146.66 169.75 146.66 169.75 146.66 169.75 146.66 169.75 146.66 169.75 146.66 169.75 146.66 169.75 146.66 169.75 146.66 169.75 146.66 169.75 146.66 169.75 146.66 169.75 146.66 169.75 146.66 169.75 146.66 169.75 146.66 169.75 146.66 169.75 146.66 169.75 146.66 169.75 146.66 169.75 146.66 169.75 146.66 169.75 146.66 169.75 146.66 169.75 146.66 169.75 146.66 169.75 146.66 169.75 146.66 169.75 146.66 169.75 146.66 169.75 146.66 169.75 146.66 169.75 146.66 169.75 146.66 169.75 146.66 169.75 146.66 169.75 146.66 169.75 146.66 169.75 146.66 169.75 146.66 169.75"/>
  <g class="st9">
    <path d="M149.95,165.67c-.35.33-1.18,1.03-1.18,1.48,0,.25.25.5.5.5.23,0,.35-.18.48-.33.3-.38.88-1.08,1.99-1.63.18-.1.43-.23.43-.53,0-.25-.18-.38-.35-.5-.55-.38-.83-.83-1.03-1.43-.05-.23-.15-.55-.5-.55s-.5.33-.5.53c0,.13.2.93.6,1.46h-8.47c-.43,0-.88,0-.88.5s.45.5.88.5h8.05"/>
    <path d="M140.35,178.78h2.44c1.89,0,2.09.4,2.09,1.13,0,.18,0,.48-.18,1.23-.05.12-.08.23-.08.28,0,.2.15.3.3.3.25,0,.25-.08.38-.53l1.38-5.46c.08-.28.08-.33.08-.4,0-.05-.05-.28-.3-.28s-.28.13-.38.53c-.53,1.96-1.11,2.41-3.24,2.41h-2.29l1.61-6.39c.23-.88.25-.98,1.36-.98h3.32c3.09,0,3.67.83,3.67,2.77,0,.58,0,.68-.08,1.36-.05.33-.05.38-.05.45,0,.13.08.3.3.3.28,0,.3-.15.35-.63l.5-4.35c.08-.68-.05-.68-.68-.68h-12.32c-.5,0-.75,0-.75.5,0,.28.23.28.7.28.93,0,1.64,0,1.64.45,0,.1,0,.15-.13.6l-3.32,13.3c-.25.98-.3,1.18-2.29,1.18-.43,0-.7,0-.7.48,0,.3.3.3.38.3.73,0,2.59-.08,3.32-.08.83,0,2.92.08,3.75.08.23,0,.53,0,.53-.48,0-.2-.15-.25-.15-.28-.07-.03-.12-.03-.7-.03s-.68,0-1.31-.05c-.73-.08-.8-.18-.8-.5,0-.05,0-.2.1-.58l1.56-6.26"/>
    <path d="M156.57,189.31c-.09.35-.25.95-.25,1.04,0,.39.32.56.6.56.32,0,.6-.23.69-.39.09-.16.23-.72.32-1.09.09-.33.28-1.14.39-1.58.11-.39.21-.77.3-1.18.19-.76.19-.79.54-1.34.56-.86,1.44-1.87,2.82-1.87.99,0,1.04.81,1.04,1.23,0,1.06-.76,3.01-1.04,3.75-.19.49-.26.65-.26.95,0,.93.77,1.51,1.67,1.51,1.76,0,2.54-2.43,2.54-2.69,0-.23-.23-.23-.28-.23-.25,0-.26.11-.33.3-.41,1.41-1.16,2.13-1.87,2.13-.37,0-.44-.25-.44-.62,0-.4.09-.63.4-1.43.21-.55.93-2.41.93-3.4,0-.28,0-1.02-.65-1.53-.3-.23-.81-.47-1.64-.47-1.58,0-2.55,1.04-3.12,1.78-.14-1.5-1.39-1.78-2.29-1.78-1.46,0-2.45.9-2.97,1.6-.12-1.21-1.16-1.6-1.88-1.6s-1.16.54-1.39.95c-.39.65-.63,1.65-.63,1.74,0,.23.25.23.3.23.25,0,.26-.05.39-.53.26-1.04.6-1.9,1.28-1.9.46,0,.58.39.58.86,0,.33-.16.99-.28,1.46-.12.47-.3,1.2-.39,1.58l-.56,2.25c-.07.23-.18.67-.18.72,0,.39.32.56.6.56.32,0,.6-.23.69-.39.09-.16.23-.72.32-1.09.09-.33.28-1.14.39-1.58.11-.39.21-.77.3-1.18.19-.72.23-.86.74-1.58.49-.7,1.32-1.62,2.64-1.62,1.02,0,1.04.9,1.04,1.23,0,.44-.05.67-.3,1.66l-.74,2.96"/>
  </g>
  <polygon class="st1" points="154.56 92.17 154.56 92.17 154.56 92.17 154.56 92.17 154.56 92.17 154.56 92.17 154.56 92.17 154.56 92.17 154.56 92.17 154.56 92.17 154.56 92.17 154.56 92.17 154.56 92.17 154.56 92.17 154.56 92.17 154.56 92.17 154.56 92.17 154.56 92.17 154.56 92.17 154.56 92.17 154.56 92.17 154.56 92.17 154.56 92.17 154.56 92.17 154.56 92.17 154.56 92.17 154.56 92.17 154.56 92.17 154.56 92.17 154.56 92.17 154.56 92.17 154.56 92.17 154.56 92.17 154.56 92.17 154.56 92.17 154.56 92.17 154.56 92.17 154.56 92.17 154.56 92.17 154.56 92.17 154.56 92.17 154.56 92.17 154.56 92.17 154.56 92.17 154.56 92.17 154.56 92.17 154.56 92.17 154.56 92.17 154.56 92.17 154.56 92.17 154.56 92.17 154.56 92.17 154.56 92.17 154.56 92.17 154.56 92.17 154.56 92.17 154.56 92.17 154.56 92.17 154.56 92.17 154.56 92.17 154.56 92.17 154.56 92.17 154.56 92.17 154.56 92.17 154.56 92.17 154.56 92.17 154.56 92.17 154.56 92.17 154.56 92.17 154.56 92.17 154.56 92.17 154.56 92.17 154.56 92.17 154.56 92.17 154.56 92.17 154.56 92.17 154.56 92.17 154.56 92.17 154.56 92.17 154.56 92.17 154.56 92.17 154.56 92.17 154.56 92.17 154.56 92.17 154.56 92.17 154.56 92.17"/>
  <g class="st10">
    <path d="M183.81,102.19c-.08.38-.23.96-.23,1.08,0,.45.35.68.73.68.3,0,.75-.2.93-.7.05-.1.91-3.52,1.01-3.97.2-.83.65-2.59.8-3.27.1-.33.8-1.51,1.41-2.06.2-.18.93-.83,2.01-.83.65,0,1.03.3,1.06.3-.76.13-1.31.73-1.31,1.38,0,.4.28.88.95.88s1.38-.58,1.38-1.48-.8-1.63-2.09-1.63c-1.63,0-2.74,1.23-3.22,1.94-.2-1.13-1.11-1.94-2.29-1.94s-1.63.98-1.86,1.43c-.45.85-.78,2.36-.78,2.44,0,.25.25.25.3.25.25,0,.28-.02.43-.58.43-1.79.93-2.99,1.83-2.99.43,0,.78.2.78,1.16,0,.53-.07.8-.4,2.11l-1.46,5.81"/>
  </g>
  <polygon class="st1" points="66.26 190.39 66.26 190.39 66.26 190.39 66.26 190.39 66.26 190.39 66.26 190.39 66.26 190.39 66.26 190.39 66.26 190.39 66.26 190.39 66.26 190.39 66.26 190.39 66.26 190.39 66.26 190.39 66.26 190.39 66.26 190.39 66.26 190.39 66.26 190.39 66.26 190.39 66.26 190.39 66.26 190.39 66.26 190.39 66.26 190.39 66.26 190.39 66.26 190.39 66.26 190.39 66.26 190.39 66.26 190.39 66.26 190.39 66.26 190.39 66.26 190.39 66.26 190.39 66.26 190.39 66.26 190.39 66.26 190.39 66.26 190.39 66.26 190.39 66.26 190.39 66.26 190.39 66.26 190.39 66.26 190.39 66.26 190.39 66.26 190.39 66.26 190.39 66.26 190.39 66.26 190.39 66.26 190.39 66.26 190.39 66.26 190.39 66.26 190.39 66.26 190.39 66.26 190.39 66.26 190.39 66.26 190.39 66.26 190.39 66.26 190.39 66.26 190.39 66.26 190.39 66.26 190.39 66.26 190.39 66.26 190.39 66.26 190.39 66.26 190.39 66.26 190.39 66.26 190.39 66.26 190.39 66.26 190.39 66.26 190.39 66.26 190.39 66.26 190.39 66.26 190.39 66.26 190.39 66.26 190.39 66.26 190.39 66.26 190.39 66.26 190.39 66.26 190.39 66.26 190.39 66.26 190.39 66.26 190.39 66.26 190.39 66.26 190.39 66.26 190.39 66.26 190.39 66.26 190.39 66.26 190.39 66.26 190.39"/>
  <g class="st12">
    <path d="M238.91,232.15c-.35.33-1.18,1.03-1.18,1.48,0,.25.25.5.5.5.23,0,.35-.18.48-.33.3-.38.88-1.08,1.99-1.63.18-.1.43-.23.43-.53,0-.25-.18-.38-.35-.5-.55-.38-.83-.83-1.03-1.43-.05-.23-.15-.55-.5-.55s-.5.33-.5.53c0,.13.2.93.6,1.46h-8.47c-.43,0-.88,0-.88.5s.45.5.88.5h8.05"/>
    <path d="M228.02,252.64c-.35,0-.4,0-.55-.03-.25-.03-.33-.05-.33-.25,0-.07,0-.12.13-.58l1.74-7.02h4.75c2.41,0,2.89,1.86,2.89,2.94,0,2.49-2.24,4.93-5.21,4.93h-3.42M229.16,244.22l1.56-6.24c.23-.88.28-.95,1.36-.95h3.24c2.21,0,2.74,1.48,2.74,2.59,0,2.21-2.16,4.6-5.23,4.6h-3.67ZM225.36,251.46c-.25.98-.3,1.18-2.29,1.18-.43,0-.68,0-.68.5,0,.28.23.28.68.28h8.98c3.97,0,6.94-2.97,6.94-5.43,0-1.81-1.46-3.27-3.9-3.55,2.61-.48,5.25-2.34,5.25-4.73,0-1.86-1.66-3.47-4.68-3.47h-8.45c-.48,0-.73,0-.73.5,0,.28.23.28.7.28.05,0,.53,0,.96.05.45.05.68.08.68.4,0,.1-.03.18-.1.48l-3.37,13.5Z"/>
  </g>
</svg>