<?xml version="1.0" encoding="UTF-8"?>
<svg xmlns="http://www.w3.org/2000/svg" viewBox="0 0 1231.96 564.21">
  <defs>
    <style>
      .cls-1 {
        stroke: #231f20;
      }

      .cls-1, .cls-2, .cls-3, .cls-4, .cls-5, .cls-6, .cls-7 {
        fill: none;
        stroke-miterlimit: 10;
      }

      .cls-2, .cls-4, .cls-6 {
        stroke-width: 2px;
      }

      .cls-2, .cls-5 {
        stroke: #da1f26;
      }

      .cls-3, .cls-6 {
        stroke: #3c4ea1;
      }

      .cls-4, .cls-7 {
        stroke: #1a6734;
      }
    </style>
  </defs>
  <g id="Middle_Mass" data-name="Middle Mass">
    <path class="cls-4" d="M.71,563.45L382.54,181.61c105.44-105.44,276.4-105.44,381.84,0l381.84,381.84"/>
    <path class="cls-7" d="M.71,563.45L365.03,129.27h0c49.52-60.07,124.51-98.37,208.44-98.37s158.82,38.25,208.35,98.25l.09.11,364.32,434.18"/>
    <path class="cls-7" d="M.71,563.45L398.59,229.58h0c47.11-40.06,108.14-64.23,174.82-64.23s125.07,23.14,171.75,61.65l3.17,2.58,397.89,333.87"/>
  </g>
  <g id="Layer_1" data-name="Layer 1">
    <path class="cls-1" d="M475.38,309.64c-27.5,0-57.14-21.34-65.87-47.42l-53.95-161.23c-8.73-26.08,5.35-54.92,31.27-64.09,0,0,102.88-36.4,186.62-36.4s186.62,36.41,186.62,36.41c25.92,9.17,40,38.02,31.27,64.1l-53.94,161.21c-8.73,26.08-38.37,47.42-65.87,47.42h-196.17Z"/>
  </g>
  <g id="Layer_2" data-name="Layer 2">
    <path class="cls-5" d="M398.59,229.58c44.32-37.23,101.5-59.65,163.91-59.65,70.6,0,134.5,28.69,180.67,75.05h0s317.19,318.47,317.19,318.47"/>
    <path class="cls-2" d="M382.54,181.61c46.15-46.15,109.9-74.69,180.31-74.69,78.7,0,149.07,35.65,195.85,91.69h0s301.68,364.85,301.68,364.85"/>
    <path class="cls-5" d="M365.02,129.25c46.78-55.68,116.92-91.08,195.34-91.08,89.29,0,167.86,45.89,213.41,115.37h0s286.6,409.9,286.6,409.9"/>
  </g>
  <g id="Layer_4" data-name="Layer 4">
    <path id="Lower_path_high_mass_arc" data-name="Lower path high mass arc" class="cls-3" d="M398.6,229.6c49.4-41.5,113.12-66.49,182.69-66.49,63.89,0,122.86,21.08,170.33,56.67"/>
    <path id="Middle_path_high_mass_arc" data-name="Middle path high mass arc" class="cls-6" d="M382.54,181.61c51.43-51.43,122.48-83.24,200.96-83.24,70.96,0,135.85,26.01,185.65,69.01"/>
    <path id="Higher_path_high_mass_arc" data-name="Higher path high mass arc" class="cls-3" d="M365.01,129.25c52.13-62.06,130.31-101.51,217.71-101.51,80.14,0,152.53,33.17,204.2,86.53"/>
    <line class="cls-6" x1="1231.31" y1="563.45" x2="769.14" y2="167.38"/>
    <line class="cls-3" x1="786.91" y1="114.27" x2="1231.31" y2="563.45"/>
    <line class="cls-3" x1="1231.31" y1="563.45" x2="751.61" y2="219.79"/>
  </g>
</svg>